<?xml version="1.0" encoding="UTF-8" standalone="no"?>
<!DOCTYPE svg PUBLIC "-//W3C//DTD SVG 1.1//EN"
 "http://www.w3.org/Graphics/SVG/1.1/DTD/svg11.dtd">
<!-- Generated by graphviz version 2.40.1 (20161225.0304)
 -->
<!-- Title: dependencies Pages: 1 -->
<svg width="504pt" height="284pt"
 viewBox="0.00 0.00 504.00 284.00" xmlns="http://www.w3.org/2000/svg" xmlns:xlink="http://www.w3.org/1999/xlink">
<g id="graph0" class="graph" transform="scale(1 1) rotate(0) translate(4 280)">
<title>dependencies</title>
<polygon fill="#ffffff" stroke="transparent" points="-4,4 -4,-280 500,-280 500,4 -4,4"/>
<text text-anchor="start" x="227.0091" y="-42.4" font-family="sans-serif" font-weight="bold" font-size="14.00" fill="#000000">Legend</text>
<polygon fill="#ffffb3" stroke="transparent" points="14,-10 14,-30 34,-30 34,-10 14,-10"/>
<text text-anchor="start" x="37.629" y="-15.4" font-family="sans-serif" font-size="14.00" fill="#000000"> &#160;Declarations</text>
<polygon fill="#8dd3c7" stroke="transparent" points="127,-10 127,-30 147,-30 147,-10 127,-10"/>
<text text-anchor="start" x="150.7251" y="-15.4" font-family="sans-serif" font-size="14.00" fill="#000000"> &#160;Module</text>
<polygon fill="#80b1d3" stroke="transparent" points="213,-10 213,-30 233,-30 233,-10 213,-10"/>
<text text-anchor="start" x="236.7812" y="-15.4" font-family="sans-serif" font-size="14.00" fill="#000000"> &#160;Bootstrap</text>
<polygon fill="#fdb462" stroke="transparent" points="310,-10 310,-30 330,-30 330,-10 310,-10"/>
<text text-anchor="start" x="333.6732" y="-15.4" font-family="sans-serif" font-size="14.00" fill="#000000"> &#160;Providers</text>
<polygon fill="#fb8072" stroke="transparent" points="406,-10 406,-30 426,-30 426,-10 406,-10"/>
<text text-anchor="start" x="429.7258" y="-15.4" font-family="sans-serif" font-size="14.00" fill="#000000"> &#160;Exports</text>
<g id="clust1" class="cluster">
<title>cluster_IxMenuModule</title>
<polygon fill="none" stroke="#000000" stroke-dasharray="1,5" points="48,-70 48,-268 448,-268 448,-70 48,-70"/>
</g>
<g id="clust2" class="cluster">
<title>cluster_IxMenuModule_declarations</title>
<polygon fill="none" stroke="#000000" points="248,-78 248,-130 436,-130 436,-78 248,-78"/>
</g>
<g id="clust5" class="cluster">
<title>cluster_IxMenuModule_imports</title>
<polygon fill="none" stroke="#000000" points="56,-78 56,-130 240,-130 240,-78 56,-78"/>
</g>
<g id="clust6" class="cluster">
<title>cluster_IxMenuModule_exports</title>
<polygon fill="none" stroke="#000000" points="56,-208 56,-260 440,-260 440,-208 56,-208"/>
</g>
<!-- IxMenuItem -->
<g id="node1" class="node">
<title>IxMenuItem</title>
<polygon fill="#ffffb3" stroke="#000000" points="427.9762,-122 342.0238,-122 342.0238,-86 427.9762,-86 427.9762,-122"/>
<text text-anchor="middle" x="385" y="-99.8" font-family="Times,serif" font-size="14.00" fill="#000000">IxMenuItem</text>
</g>
<!-- IxMenuModule -->
<g id="node3" class="node">
<title>IxMenuModule</title>
<polygon fill="#8dd3c7" stroke="#000000" points="340.8697,-187 337.8697,-191 316.8697,-191 313.8697,-187 237.1303,-187 237.1303,-151 340.8697,-151 340.8697,-187"/>
<text text-anchor="middle" x="289" y="-164.8" font-family="Times,serif" font-size="14.00" fill="#000000">IxMenuModule</text>
</g>
<!-- IxMenuItem&#45;&gt;IxMenuModule -->
<g id="edge1" class="edge">
<title>IxMenuItem&#45;&gt;IxMenuModule</title>
<path fill="none" stroke="#000000" d="M341.9638,-104C336.2378,-104 332.2974,-104 332.2974,-104 332.2974,-104 332.2974,-140.8939 332.2974,-140.8939"/>
<polygon fill="#000000" stroke="#000000" points="328.7974,-140.8938 332.2974,-150.8939 335.7974,-140.8939 328.7974,-140.8938"/>
</g>
<!-- _IxMenu -->
<g id="node2" class="node">
<title>_IxMenu</title>
<polygon fill="#ffffb3" stroke="#000000" points="323.8206,-122 256.1794,-122 256.1794,-86 323.8206,-86 323.8206,-122"/>
<text text-anchor="middle" x="290" y="-99.8" font-family="Times,serif" font-size="14.00" fill="#000000">_IxMenu</text>
</g>
<!-- _IxMenu&#45;&gt;IxMenuModule -->
<g id="edge2" class="edge">
<title>_IxMenu&#45;&gt;IxMenuModule</title>
<path fill="none" stroke="#000000" d="M290,-122.1061C290,-122.1061 290,-140.991 290,-140.991"/>
<polygon fill="#000000" stroke="#000000" points="286.5001,-140.9909 290,-150.991 293.5001,-140.991 286.5001,-140.9909"/>
</g>
<!-- IxMenuItem  -->
<g id="node5" class="node">
<title>IxMenuItem </title>
<polygon fill="#fb8072" stroke="#000000" points="431.9775,-252 342.0225,-252 342.0225,-216 431.9775,-216 431.9775,-252"/>
<text text-anchor="middle" x="387" y="-229.8" font-family="Times,serif" font-size="14.00" fill="#000000">IxMenuItem </text>
</g>
<!-- IxMenuModule&#45;&gt;IxMenuItem  -->
<g id="edge4" class="edge">
<title>IxMenuModule&#45;&gt;IxMenuItem </title>
<path fill="none" stroke="#000000" stroke-dasharray="5,2" d="M332.6724,-187.1061C332.6724,-206.3391 332.6724,-234 332.6724,-234 332.6724,-234 333.6187,-234 333.6187,-234"/>
<polygon fill="#000000" stroke="#000000" points="332.1355,-237.5001 342.1355,-234 332.1355,-230.5001 332.1355,-237.5001"/>
</g>
<!-- _IxMenu  -->
<g id="node6" class="node">
<title>_IxMenu </title>
<polygon fill="#fb8072" stroke="#000000" points="324.32,-252 253.68,-252 253.68,-216 324.32,-216 324.32,-252"/>
<text text-anchor="middle" x="289" y="-229.8" font-family="Times,serif" font-size="14.00" fill="#000000">_IxMenu </text>
</g>
<!-- IxMenuModule&#45;&gt;_IxMenu  -->
<g id="edge5" class="edge">
<title>IxMenuModule&#45;&gt;_IxMenu </title>
<path fill="none" stroke="#000000" stroke-dasharray="5,2" d="M289,-187.1061C289,-187.1061 289,-205.991 289,-205.991"/>
<polygon fill="#000000" stroke="#000000" points="285.5001,-205.9909 289,-215.991 292.5001,-205.991 285.5001,-205.9909"/>
</g>
<!-- _IxMenuDirectivesModule  -->
<g id="node7" class="node">
<title>_IxMenuDirectivesModule </title>
<polygon fill="#fb8072" stroke="#000000" points="235.897,-252 64.103,-252 64.103,-216 235.897,-216 235.897,-252"/>
<text text-anchor="middle" x="150" y="-229.8" font-family="Times,serif" font-size="14.00" fill="#000000">_IxMenuDirectivesModule </text>
</g>
<!-- IxMenuModule&#45;&gt;_IxMenuDirectivesModule  -->
<g id="edge6" class="edge">
<title>IxMenuModule&#45;&gt;_IxMenuDirectivesModule </title>
<path fill="none" stroke="#000000" stroke-dasharray="5,2" d="M245.3277,-187.1061C245.3277,-206.3391 245.3277,-234 245.3277,-234 245.3277,-234 244.4136,-234 244.4136,-234"/>
<polygon fill="#000000" stroke="#000000" points="246.1873,-230.5001 236.1872,-234 246.1872,-237.5001 246.1873,-230.5001"/>
</g>
<!-- _IxMenuDirectivesModule -->
<g id="node4" class="node">
<title>_IxMenuDirectivesModule</title>
<polygon fill="#8dd3c7" stroke="#000000" points="232.3975,-122 229.3975,-126 208.3975,-126 205.3975,-122 63.6025,-122 63.6025,-86 232.3975,-86 232.3975,-122"/>
<text text-anchor="middle" x="148" y="-99.8" font-family="Times,serif" font-size="14.00" fill="#000000">_IxMenuDirectivesModule</text>
</g>
<!-- _IxMenuDirectivesModule&#45;&gt;IxMenuModule -->
<g id="edge3" class="edge">
<title>_IxMenuDirectivesModule&#45;&gt;IxMenuModule</title>
<path fill="none" stroke="#000000" d="M232.561,-104C241.0985,-104 246.7027,-104 246.7027,-104 246.7027,-104 246.7027,-140.8939 246.7027,-140.8939"/>
<polygon fill="#000000" stroke="#000000" points="243.2027,-140.8938 246.7027,-150.8939 250.2027,-140.8939 243.2027,-140.8938"/>
</g>
</g>
</svg>
