<?xml version="1.0" encoding="UTF-8"?><svg version="1.1" viewBox="0 0 48 48" xmlns="http://www.w3.org/2000/svg" xmlns:xlink="http://www.w3.org/1999/xlink"><!--Generated by IJSVG (https://github.com/curthard89/IJSVG)--><path d="M0,0h48v48h-48Z" fill="none"></path><path fill="#000" d="M18.9255,24.2745c2.49936,2.49936 2.49936,6.55161 0,9.05097c-2.49936,2.49936 -6.55161,2.49936 -9.05097,0c-2.49936,-2.49936 -2.49936,-6.55161 -1.77636e-15,-9.05097c2.49936,-2.49936 6.55161,-2.49936 9.05097,0"></path><g fill="#000"><path d="M32.4284,33.1716c1.5621,1.5621 1.5621,4.09476 0,5.65685c-1.5621,1.5621 -4.09476,1.5621 -5.65685,0c-1.5621,-1.5621 -1.5621,-4.09476 0,-5.65685c1.5621,-1.5621 4.09476,-1.5621 5.65685,0"></path><path d="M37.1882,10.8118c3.74903,3.74903 3.74903,9.82742 0,13.5765c-3.74903,3.74903 -9.82742,3.74903 -13.5765,0c-3.74903,-3.74903 -3.74903,-9.82742 -3.55271e-15,-13.5765c3.74903,-3.74903 9.82742,-3.74903 13.5765,-3.55271e-15"></path></g></svg>