<svg width="48px" height="35px" viewBox="0 0 48 35" version="1.1" xmlns="http://www.w3.org/2000/svg" xmlns:xlink="http://www.w3.org/1999/xlink">
  <!-- Generator: Sketch 49.3 (51167) - http://www.bohemiancoding.com/sketch -->
  <desc>Created with Sketch.</desc>
  <defs></defs>
  <g id="Page-1" stroke="none" stroke-width="1" fill="none" fill-rule="evenodd">
    <g id="uiux-logo">
      <g id="ic_tablet_48px" transform="translate(0.012781, 0.084884)" class="color" fill-rule="nonzero">
        <path d="M43.3919268,0 L4.33919268,0 C1.94178872,0 0,1.94178872 0,4.33919268 L0,30.3743488 C0,32.7717527 1.94178872,34.7135414 4.33919268,34.7135414 L43.3919268,34.7135414 C45.7893308,34.7135414 47.7094235,32.7717527 47.7094235,30.3743488 L47.7311195,4.33919268 C47.7311195,1.94178872 45.7893308,0 43.3919268,0 Z M43.2210213,32.5604373 L4.51009823,32.5604373 L4.51009823,2.15310413 L43.2210213,2.15310413 L43.2210213,32.5604373 Z" id="Shape"></path>
      </g>
      <g id="ix" transform="translate(6.869924, 0.406313)">
        <g id="ic_bubble_chart_48px" transform="translate(0.209423, 0.082207)">
          <polygon id="Shape" points="0 0 33.6495577 0 33.6495577 33.6495577 0 33.6495577"></polygon>
          <path d="M13.2673897,17.0172123 C15.0195222,18.7693447 15.0195222,21.6101035 13.2673897,23.362236 C11.5152572,25.1143684 8.67449846,25.1143684 6.92236599,23.362236 C5.17023352,21.6101035 5.17023352,18.7693447 6.92236599,17.0172123 C8.67449846,15.2650798 11.5152572,15.2650798 13.2673897,17.0172123" id="Shape" class="color" fill-rule="nonzero"></path>
          <g id="Group" transform="translate(14.449220, 5.608260)" class="color" fill-rule="nonzero">
            <path d="M8.28414031,17.6461085 C9.3792231,18.7411913 9.3792231,20.5166681 8.28414031,21.6117439 C7.18905751,22.7068267 5.41358066,22.7068267 4.31850488,21.6117439 C3.22342208,20.5166611 3.22342208,18.7411843 4.31850488,17.6461085 C5.41358767,16.5510257 7.18906452,16.5510257 8.28414031,17.6461085" id="Shape"></path>
            <path d="M11.6209146,1.97116305 C14.2491063,4.59935475 14.2491063,8.8605034 11.6209146,11.4887301 C8.99272288,14.1169218 4.73157423,14.1169218 2.10334748,11.4887301 C-0.524844215,8.86053845 -0.524844215,4.5993898 2.10334748,1.97116305 C4.73153918,-0.657028646 8.99268783,-0.657028646 11.6209146,1.97116305" id="Shape"></path>
          </g>
        </g>
        <polygon id="Line" class="color" fill-rule="nonzero" points="19.9632471 12.5164204 22.1061043 12.5164204 22.1061043 25.4890379 19.9632471 25.4890379"></polygon>
        <polygon id="Line" class="color" fill-rule="nonzero" points="21.0368881 10.8014446 22.3281795 12.5115333 10.1180909 21.7313961 8.82679943 20.0213075"></polygon>
        <polygon id="Line" class="color" fill-rule="nonzero" points="23.3131502 24.8296278 22.4428535 26.7877954 8.91325731 20.7746415 9.78355403 18.8164739"></polygon>
      </g>
    </g>
  </g>
</svg>
