<svg id="bind" viewBox="0 0 23 23" width="23px" height="23px">
  <desc>Bind.</desc>

  <g stroke="none" stroke-width="1" fill="none" fill-rule="evenodd">
    <polygon id="Shape" points="0.330458745 0.664999962 24.3304587 0.664999962 24.3304587 24.665 0.330458745 24.665"/>
    <g class="icon-color" id="bind-icon-moon" transform="translate(11.500000, 11.000000) scale(-1, 1) translate(-11.500000, -11.000000) translate(-1.000000, -1.500000)">
      <path d="M8.20691941,16.7892267 C8.58497352,17.1672808 9.22285392,17.1480344 9.62290391,16.7479844 L16.4127558,9.9581325 C16.8141805,9.55670777 16.8320522,8.92020211 16.4539981,8.542148 C16.075944,8.16409388 15.4380636,8.18334027 15.0380136,8.58339026 L8.24816168,15.3732422 C7.84673694,15.7746669 7.82886529,16.4111726 8.20691941,16.7892267 Z M11.5764126,16.1692179 C11.6740193,16.3630566 11.7262595,16.5802658 11.7262595,16.8070983 C11.7262595,17.1851524 11.5819116,17.5384612 11.3179611,17.8024117 L7.80824416,21.3121286 C7.54566839,21.5747044 7.19235964,21.7204271 6.81293078,21.7204271 C6.43350192,21.7204271 6.08156791,21.5760791 5.8176174,21.3121286 L3.68264271,19.1771539 C3.42006694,18.9145782 3.27434427,18.5612694 3.27434427,18.1818406 C3.27434427,17.8024117 3.4186922,17.4504777 3.68264271,17.1865272 L7.19235964,13.6768102 C7.45493541,13.4142345 7.80824416,13.2685118 8.18767302,13.2685118 C8.41450549,13.2685118 8.63171476,13.320752 8.82555341,13.4183587 L10.2291652,12.0147469 C9.63115237,11.5542082 8.90941269,11.3246263 8.18767302,11.3246263 C7.32845912,11.3246263 6.46924522,11.6504402 5.8176174,12.302068 L2.30790047,15.8117849 C1.00464484,17.1150406 1.00464484,19.2472658 2.30790047,20.5505214 L4.44287517,22.6854961 C5.09450299,23.3371239 5.95371688,23.6629378 6.81293078,23.6629378 C7.67214468,23.6629378 8.53135858,23.3371239 9.1829864,22.6854961 L12.6927033,19.1757792 C13.8914786,17.977004 13.9863358,16.0757354 12.9800245,14.7642314 L11.5764126,16.1678432 L11.5764126,16.1692179 Z M22.3516423,4.7794785 L20.2166676,2.6445038 C19.5650398,1.99287599 18.7058259,1.66706208 17.846612,1.66706208 C16.9873981,1.66706208 16.1281842,1.99287599 15.4765564,2.6445038 L11.9668394,6.15422073 C10.7680642,7.35299596 10.673207,9.25426447 11.680893,10.5643938 L13.0845049,9.160782 C12.9868982,8.96694335 12.934658,8.74973407 12.934658,8.52290161 C12.934658,8.14484749 13.0790059,7.79153874 13.3429564,7.52758823 L16.8526733,4.0178713 C17.1152491,3.75529553 17.4685579,3.60957285 17.8479867,3.60957285 C18.2274156,3.60957285 18.5793496,3.75392079 18.8433001,4.0178713 L20.9782748,6.15284599 C21.2408505,6.41542176 21.3865732,6.76873051 21.3865732,7.14815937 C21.3865732,7.52758823 21.2422253,7.87952224 20.9782748,8.14347275 L17.4685579,11.6531897 C17.2059821,11.9157654 16.8526733,12.0614881 16.4732445,12.0614881 C16.246412,12.0614881 16.0292027,12.0092479 15.8353641,11.9116412 L14.4317523,13.315253 C15.0297651,13.7757917 15.7515048,14.0053736 16.4732445,14.0053736 C17.3324584,14.0053736 18.1916723,13.6795597 18.8433001,13.0279319 L22.353017,9.51821498 C23.6562727,8.21495934 23.6562727,6.08273414 22.353017,4.7794785 L22.3516423,4.7794785 Z" id="Shape" fill-rule="nonzero"/>
    </g>
  </g>
</svg>
