
<svg width="24px" height="24px" viewBox="0 0 24 24" version="1.1" xmlns="http://www.w3.org/2000/svg" xmlns:xlink="http://www.w3.org/1999/xlink">
  <!-- Generator: Sketch 48 (47235) - http://www.bohemiancoding.com/sketch -->
  <desc>Created with Sketch.</desc>
  <defs></defs>
  <g id="Page-1" stroke="none" stroke-width="1" fill="none" fill-rule="evenodd">
    <g id="ground-fault-monitor-blue-reversed" transform="translate(-0.80, -0.5)">
      <rect id="Rectangle-21" class="icon-color" x="0.810283918" y="0.461923076" width="23.9977014" height="23.9977014" rx="2.18160922"></rect>
      <path d="M8.75450814,16.6184739 L16.8637611,16.6184739 L16.8637611,17.3684739 L8.75450814,17.3684739 L8.75450814,16.6184739 Z M13.1879864,12.7822689 L13.1879864,21.4313841 L12.4302828,21.4313841 L12.4302828,12.7822689 L13.1879864,12.7822689 Z M9.76866829,18.6731117 L15.8496009,18.6731117 L15.8496009,19.4231117 L9.76866829,19.4231117 L9.76866829,18.6731117 Z M10.7990638,20.7277495 L14.8192054,20.7277495 L14.8192054,21.4777495 L10.7990638,21.4777495 L10.7990638,20.7277495 Z" id="Shape" fill="#FFFFFF" fill-rule="nonzero"></path>
      <rect id="Rectangle-22" stroke="#FFFFFF" x="4.54696992" y="4.34138551" width="16.8340139" height="8.35683366" rx="2"></rect>
      <g id="circles" transform="translate(6.210456, 6.454513)" fill="#FFFFFF">
        <circle id="Path" cx="2.4249369" cy="2.31745463" r="1.5"></circle>
        <circle id="Path" cx="6.80359901" cy="2.31745463" r="1.5"></circle>
        <circle id="Path" cx="11.1822611" cy="2.31745463" r="1.5"></circle>
      </g>
    </g>
  </g>
</svg>
