<svg id="inverter" width="23px" height="23px" viewBox="0 0 23 23" version="1.1" xmlns="http://www.w3.org/2000/svg" xmlns:xlink="http://www.w3.org/1999/xlink">
  <desc>Created with Sketch.</desc>
  <defs></defs>
  <g id="Page-1" stroke="none" stroke-width="1" fill="none" fill-rule="evenodd">
    <g id="inverter" transform="translate(-0.968750, -0.506348)">
      <path class="icon-color" d="M21.3162566,1.5015117 L4.20575662,1.5015117 C2.85550662,1.5015117 1.76100662,2.5960117 1.76100662,3.9462617 L1.76100662,21.0567617 C1.76100662,22.4070117 2.85550662,23.5015117 4.20575662,23.5015117 L21.3166004,23.5015117 C22.6665066,23.5015117 23.7610066,22.4070117 23.7610066,21.0567617 L23.7610066,3.9462617 C23.7610066,2.5960117 22.6665066,1.5015117 21.3162566,1.5015117 Z M22.2729621,20.1671966 C22.2729621,21.1868782 21.4463731,22.0134672 20.4266915,22.0134672 L5.19678258,22.0134672 C4.12098042,22.0134672 3.24905117,21.1415379 3.24905117,20.0657357 L3.24905117,4.83392441 C3.24905117,3.81519398 4.0746889,2.98955624 5.09341933,2.98955624 L20.5297377,2.98955624 C21.4926647,2.98955624 22.2729621,3.76985366 22.2729621,4.73278061 L22.2729621,20.1671966 Z M17.7088088,14.8883784 C17.0654835,14.9587669 16.5286922,15.4089994 16.1149221,16.2263935 C15.5923987,17.2581236 15.0457783,17.780964 14.4905972,17.780964 C13.5403528,17.7460869 12.962343,16.6588704 12.7489581,16.2286129 L12.3225055,16.4391442 C12.358968,16.5130204 13.2302631,18.2502205 14.4829876,18.2565618 C15.3368442,18.2565618 15.9288049,17.6458943 16.5388383,16.4410466 C16.8755615,15.776478 17.2858438,15.4134383 17.7595392,15.3614396 C18.7494167,15.2517351 19.7621229,16.472119 19.772586,16.4844845 L20.1403817,16.1829555 C20.0928219,16.1249326 18.9482166,14.7571134 17.7088088,14.8883784 L17.7088088,14.8883784 Z M4.92363092,19.8968985 L4.63210931,19.5895435 L20.5984418,4.4461735 L20.8899634,4.75352857 L4.92363092,19.8968985 Z M5.15144226,7.74553397 L7.37089853,7.74553397 L7.37089853,8.37966433 L5.15144226,8.37966433 L5.15144226,7.74553397 Z M8.32209407,7.74553397 L10.8586155,7.74553397 L10.8586155,8.37966433 L8.32209407,8.37966433 L8.32209407,7.74553397 Z M11.8098111,7.74553397 L14.0292673,7.74553397 L14.0292673,8.37966433 L11.8098111,8.37966433 L11.8098111,7.74553397 Z M5.15144226,6.47727324 L14.0292673,6.47727324 L14.0292673,7.11140361 L5.15144226,7.11140361 L5.15144226,6.47727324 Z" id="Shape" fill="#000000" fill-rule="nonzero"></path>
      <rect id="border" x="0.76100662" y="0.501511696" width="24" height="24"></rect>
    </g>
  </g>
</svg>
