<!-- Generated by IcoMoon.io -->
<svg version="1.1" xmlns="http://www.w3.org/2000/svg" width="1024" height="1024" viewBox="0 0 1024 1024">
  <title></title>
  <g id="icomoon-ignore">
  </g>
  <path class="icon-color"
    d="M1024 732.8c0 17.6-12.8 30.4-30.4 30.4h-123.2c-17.6 0-30.4-12.8-30.4-30.4s12.8-30.4 30.4-30.4h91.2c-6.4-100.8-48-193.6-110.4-265.6l-64 64c-6.4 6.4-14.4 9.6-22.4 9.6s-16-3.2-22.4-9.6c-12.8-11.2-12.8-32 0-43.2l64-64c-72-62.4-164.8-104-265.6-110.4v91.2c0 17.6-12.8 30.4-30.4 30.4s-30.4-12.8-30.4-30.4v-91.2c-100.8 6.4-193.6 48-265.6 110.4l272 272c8-3.2 16-4.8 24-4.8 40 0 72 32 72 72s-32 72-72 72-72-32-72-72c0-8 1.6-16 4.8-24l-272-272c-62.4 72-104 164.8-110.4 265.6h91.2c17.6 0 30.4 12.8 30.4 30.4s-12.8 30.4-30.4 30.4h-121.6c-17.6 0-30.4-12.8-30.4-30.4 0-140.8 56-267.2 147.2-360 1.6-1.6 3.2-3.2 6.4-6.4 92.8-91.2 219.2-147.2 360-147.2s267.2 56 360 147.2v0c1.6 1.6 4.8 3.2 6.4 6.4v0c88 92.8 144 219.2 144 360z"></path>
</svg>
