<svg width="24px" height="24px" viewBox="0 0 24 24" version="1.1" xmlns="http://www.w3.org/2000/svg" xmlns:xlink="http://www.w3.org/1999/xlink">
  <!-- Generator: Sketch 49.3 (51167) - http://www.bohemiancoding.com/sketch -->
  <desc>Created with Sketch.</desc>
  <defs></defs>
  <g id="Page-1" stroke="none" stroke-width="1" fill="none" fill-rule="evenodd">
    <g id="met-station-calibrate" transform="translate(0.578613, -0.506348)">
      <rect id="border" stroke="#000000" x="0" y="1" width="24" stroke-width="0" height="24"></rect>
      <g id="Group-2" transform="translate(2.322132, 3.840134)" fill="#FFFFFF" class="icon-color">
        <rect id="Rectangle-18" x="9.02852319" y="5.08950691" width="1.1294084" height="5.64704201"></rect>
        <rect id="Rectangle-18" transform="translate(7.129965, 12.111529) rotate(-125.000000) translate(-7.129965, -12.111529) " x="6.54735165" y="9.0731155" width="1.16522614" height="6.07682797"></rect>
        <polygon id="Rectangle-18" transform="translate(10.063484, 10.603799) scale(-1, 1) rotate(-125.000000) translate(-10.063484, -10.603799) " points="9.47310347 10.052913 10.6538655 10.0867424 10.6383296 11.1546857 9.47310347 11.1546857"></polygon>
        <circle id="Oval-7" cx="9.5805436" cy="3.16267441" r="2.64167412"></circle>
        <circle id="Oval-7" cx="2.67504945" cy="15.0071244" r="2.64167412"></circle>
      </g>
      <g id="ic_settings_24px" transform="translate(13.157537, 13.319025)" fill="#FFFFFF" class="icon-color" fill-rule="nonzero">
        <path d="M7.13829923,4.49675993 C7.15468086,4.36570681 7.16696709,4.2346537 7.16696709,4.09540977 C7.16696709,3.95616584 7.15468086,3.82511272 7.13829923,3.69405961 L8.00243069,3.018317 C8.08024347,2.95688585 8.10072052,2.84630979 8.0515756,2.75621077 L7.23249365,1.33919899 C7.18334873,1.24909998 7.07277267,1.2163367 6.98267365,1.24909998 L5.96291662,1.65864096 C5.74995531,1.49482457 5.52061237,1.35967604 5.27079237,1.2572908 L5.1151668,0.17200721 C5.10288057,0.0737173758 5.01687697,0 4.91449172,0 L3.27632781,0 C3.17394257,0 3.08793897,0.0737173758 3.07565274,0.17200721 L2.92002716,1.2572908 C2.67020717,1.35967604 2.44086422,1.49891998 2.22790291,1.65864096 L1.20814588,1.24909998 C1.11395146,1.21224129 1.0074708,1.24909998 0.958325886,1.33919899 L0.139243932,2.75621077 C0.0860036051,2.84630979 0.110576064,2.95688585 0.188388849,3.018317 L1.05252031,3.69405961 C1.03613867,3.82511272 1.02385244,3.96026125 1.02385244,4.09540977 C1.02385244,4.23055829 1.03613867,4.36570681 1.05252031,4.49675993 L0.188388849,5.17250254 C0.110576064,5.23393368 0.0900990149,5.34450975 0.139243932,5.43460876 L0.958325886,6.85162054 C1.0074708,6.94171956 1.11804687,6.97448284 1.20814588,6.94171956 L2.22790291,6.53217858 C2.44086422,6.69599497 2.67020717,6.83114349 2.92002716,6.93352874 L3.07565274,8.01881233 C3.08793897,8.11710216 3.17394257,8.19081954 3.27632781,8.19081954 L4.91449172,8.19081954 C5.01687697,8.19081954 5.10288057,8.11710216 5.1151668,8.01881233 L5.27079237,6.93352874 C5.52061237,6.83114349 5.74995531,6.69189956 5.96291662,6.53217858 L6.98267365,6.94171956 C7.07686808,6.97857824 7.18334873,6.94171956 7.23249365,6.85162054 L8.0515756,5.43460876 C8.10072052,5.34450975 8.08024347,5.23393368 8.00243069,5.17250254 L7.13829923,4.49675993 Z M4.09540977,5.52880319 C3.30499568,5.52880319 2.66201635,4.88582385 2.66201635,4.09540977 C2.66201635,3.30499568 3.30499568,2.66201635 4.09540977,2.66201635 C4.88582385,2.66201635 5.52880319,3.30499568 5.52880319,4.09540977 C5.52880319,4.88582385 4.88582385,5.52880319 4.09540977,5.52880319 Z" id="Shape"></path>
      </g>
    </g>
  </g>
</svg>
