<svg id="pvs" width="23px" height="23px" viewBox="0 0 23 23" version="1.1" xmlns="http://www.w3.org/2000/svg" xmlns:xlink="http://www.w3.org/1999/xlink">
  <desc>Created with Sketch.</desc>
  <defs></defs>
  <g id="Page-1" stroke="none" stroke-width="1" fill="none" fill-rule="evenodd">
    <g  transform="translate(-0.997559, -0.506348)">
      <rect id="border" x="0.4549662" y="0.186546864" width="24" height="24"></rect>
      <path class="icon-color" d="M21.01056,1.18654686 L3.89937245,1.18654686 C2.5494662,1.18654686 1.4549662,2.28104686 1.4549662,3.63095311 L1.4549662,20.7421406 C1.4549662,22.0920469 2.5494662,23.1865469 3.89937245,23.1865469 L21.01056,23.1865469 C22.3604662,23.1865469 23.4549662,22.0920469 23.4549662,20.7421406 L23.4549662,3.63095311 C23.4549662,2.28104686 22.3604662,1.18654686 21.01056,1.18654686 Z M22.024269,19.93311 C22.024269,21.2220679 21.4904873,21.7558496 20.2015294,21.7558496 L4.70840302,21.7558496 C3.41944514,21.7558496 2.88566343,21.2220679 2.88566343,19.93311 L2.88566343,4.43998369 C2.88566343,3.1510258 3.41912474,2.61724409 4.70840302,2.61724409 L20.2015294,2.61724409 C21.4904873,2.61724409 22.024269,3.1510258 22.024269,4.43998369 L22.024269,19.93311 Z M23.4549662,3.62717186 C23.4549662,2.28654686 22.3549662,1.18654686 21.0143412,1.18654686 L3.8955912,1.18654686 C2.5549662,1.18654686 1.4549662,2.28654686 1.4549662,3.62717186 L1.4549662,20.7459219 C1.4549662,22.0865469 2.5549662,23.1865469 3.8955912,23.1865469 L21.0143412,23.1865469 C22.3549662,23.1865469 23.4549662,22.0865469 23.4549662,20.7459219 L23.4549662,3.62717186 Z M22.7674662,20.5052969 C22.7674662,21.8802969 22.2518412,22.4990469 20.8768412,22.4990469 L16.2362162,22.4990469 L16.2362162,13.4240469 L18.1955912,11.7052969 L17.4737162,11.2240469 L15.5487162,12.9427969 L15.5487162,22.4990469 L14.1737162,22.4990469 L14.1737162,11.9802969 L15.8924662,10.2271719 L15.8924662,7.47717186 C16.5799662,7.30529686 17.1643412,6.68654686 17.1643412,5.93029686 C17.1643412,5.03654686 16.4768412,4.34904686 15.5830912,4.34904686 C14.6893412,4.34904686 13.9674662,5.07092186 13.9674662,5.93029686 C13.9674662,6.68654686 14.4830912,7.30529686 15.1705912,7.47717186 L15.1705912,9.71154686 L13.4518412,11.4646719 L13.4518412,22.4990469 L11.7330912,22.4990469 L11.7330912,15.1084219 L9.6705912,13.1490469 L9.6705912,10.6740469 C10.3580912,10.5021719 10.9768412,9.88342186 10.9768412,9.12717186 C10.9768412,8.23342186 10.3237162,7.54592186 9.4299662,7.54592186 C8.5362162,7.54592186 7.8143412,8.26779686 7.8143412,9.12717186 C7.8143412,9.88342186 8.2955912,10.5021719 8.9830912,10.6740469 L8.9830912,13.6646719 L11.0455912,15.6240469 L11.0455912,22.4990469 L9.6705912,22.4990469 L9.6705912,16.3459219 L7.8830912,14.6959219 C7.9862162,14.4896719 8.0893412,14.2490469 8.0893412,14.0084219 C8.0893412,13.1146719 7.4018412,12.4271719 6.5080912,12.4271719 C5.6143412,12.4271719 4.9268412,13.1490469 4.9268412,14.0084219 C4.9268412,14.9021719 5.6487162,15.5896719 6.5080912,15.5896719 C6.8174662,15.5896719 7.0580912,15.4865469 7.3330912,15.3146719 L8.9830912,16.7927969 L8.9830912,22.4990469 L4.2393412,22.4990469 C2.8643412,22.4990469 2.1424662,21.8802969 2.1424662,20.5052969 L2.1424662,3.86779686 C2.1424662,2.49279686 2.8643412,1.87404686 4.2393412,1.87404686 L20.8768412,1.87404686 C22.2518412,1.87404686 22.7674662,2.49279686 22.7674662,3.86779686 L22.7674662,20.5052969 Z M15.6040385,6.83221386 C15.1227885,6.83221386 14.7446635,6.45408886 14.7446635,5.97283886 C14.7446635,5.49158886 15.1227885,5.11346386 15.6040385,5.11346386 C16.0852885,5.11346386 16.4634135,5.49158886 16.4634135,5.97283886 C16.4634135,6.45408886 16.0852885,6.83221386 15.6040385,6.83221386 Z M9.48528847,9.99471386 C9.00403847,9.99471386 8.62591347,9.61658886 8.62591347,9.13533886 C8.62591347,8.65408886 9.00403847,8.27596386 9.48528847,8.27596386 C9.96653847,8.27596386 10.3446635,8.65408886 10.3446635,9.13533886 C10.3446635,9.61658886 9.96653847,9.99471386 9.48528847,9.99471386 Z M7.42278847,14.0165889 C7.42278847,14.4978389 7.04466347,14.8759639 6.56341347,14.8759639 C6.08216347,14.8759639 5.70403847,14.4978389 5.70403847,14.0165889 C5.70403847,13.5353389 6.08216347,13.1572139 6.56341347,13.1572139 C7.04466347,13.1572139 7.42278847,13.5697139 7.42278847,14.0165889 Z M18.5259135,9.03221386 C17.6321635,9.03221386 16.9446635,9.75408886 16.9446635,10.6134639 C16.9446635,11.4728389 17.6665385,12.1947139 18.5259135,12.1947139 C19.4196635,12.1947139 20.1071635,11.4728389 20.1071635,10.6134639 C20.1071635,9.75408886 19.4196635,9.03221386 18.5259135,9.03221386 L18.5259135,9.03221386 Z M18.5259135,11.4728389 C18.0446635,11.4728389 17.6665385,11.0947139 17.6665385,10.6134639 C17.6665385,10.1322139 18.0446635,9.75408886 18.5259135,9.75408886 C19.0071635,9.75408886 19.3852885,10.1322139 19.3852885,10.6134639 C19.3852885,11.0603389 19.0071635,11.4728389 18.5259135,11.4728389 Z" id="Shape" fill="#000000" fill-rule="nonzero"></path>
    </g>
  </g>
</svg>
