<svg width="22px" height="20px" viewBox="0 0 22 20" version="1.1" xmlns="http://www.w3.org/2000/svg" xmlns:xlink="http://www.w3.org/1999/xlink">
  <!-- Generator: Sketch 48.1 (47250) - http://www.bohemiancoding.com/sketch -->
  <desc>Created with Sketch.</desc>
  <defs></defs>
  <g id="Page-1" stroke="none" stroke-width="1" fill="none" fill-rule="evenodd">
    <g id="remove" transform="translate(-1.000000, -2.500000)">
      <polygon id="Shape" points="0.00257567203 0 24.0025757 0 24.0025757 24 0.00257567203 24"></polygon>
      <g class="icon-color" id="Group" transform="translate(1.002576, 3.375000)" >
        <path d="M3.26764384,8.61467586 C2.94459266,9.09048223 2.99391136,9.74353182 3.41559996,10.1652204 L5.57785281,12.3274733 C6.05539215,12.8050126 6.8296364,12.8050126 7.30717574,12.3274733 L10.5399745,9.09467454 L13.7727732,12.3274733 C14.2503125,12.8050126 15.0245568,12.8050126 15.5020961,12.3274733 L17.664349,10.1652204 C18.0860376,9.74353182 18.1353563,9.09048223 17.8123051,8.61467586 L20.8115701,8.61467586 C21.3638548,8.61467586 21.8115701,9.06239111 21.8115701,9.61467586 L21.8115701,17.1302313 C21.8115701,17.6825161 21.3638548,18.1302313 20.8115701,18.1302313 L1.40157025,18.1302313 C0.849285498,18.1302313 0.401570248,17.6825161 0.401570248,17.1302313 L0.401570248,9.61467586 C0.401570248,9.06239111 0.849285498,8.61467586 1.40157025,8.61467586 L3.26764384,8.61467586 Z M17.5307388,13.875 L17.5307388,16.875 L20.5307388,16.875 L20.5307388,13.875 L17.5307388,13.875 Z M12.7127777,13.875 L12.7127777,16.875 L15.7127777,16.875 L15.7127777,13.875 L12.7127777,13.875 Z" id="Combined-Shape"></path>
        <path d="M10.4895993,3.29961928 L13.4948031,0.294415464 C13.8853274,-0.0961088275 14.5184924,-0.0961088275 14.9090167,0.294415464 L15.0857933,0.47119216 C15.4763176,0.861716451 15.4763176,1.49488143 15.0857933,1.88540572 L12.0805895,4.89060954 L15.0857933,7.89581336 C15.4763176,8.28633765 15.4763176,8.91950263 15.0857933,9.31002692 L14.9090167,9.48680362 C14.5184924,9.87732791 13.8853274,9.87732791 13.4948031,9.48680362 L10.4895993,6.4815998 L7.48439545,9.48680362 C7.09387116,9.87732791 6.46070618,9.87732791 6.07018189,9.48680362 L5.89340519,9.31002692 C5.5028809,8.91950263 5.5028809,8.28633765 5.89340519,7.89581336 L8.89860901,4.89060954 L5.89340519,1.88540572 C5.5028809,1.49488143 5.5028809,0.861716451 5.89340519,0.47119216 L6.07018189,0.294415464 C6.46070618,-0.0961088275 7.09387116,-0.0961088275 7.48439545,0.294415464 L10.4895993,3.29961928 Z" id="Combined-Shape"></path>
      </g>
    </g>
  </g>
</svg>
