<svg id="upgrade-firmware" viewBox="0 0 23 19" width="23px" height="19px">
  <desc>Update Firmware</desc>
  
  <g id="Page-1" stroke="none" stroke-width="1" fill="none" fill-rule="evenodd">
    <g id="update-firmware" transform="translate(-1.000000, -3.000000)">
      <path d="M9.76967138,3.45426566 L9.3276637,8.35646638 L6.2309355,8.35646638 L11.8435578,13.1258581 C11.9963236,13.2348608 12.1557956,13.2941436 12.321974,13.3037067 C12.4881523,13.3132697 12.6660819,13.2539869 12.8557627,13.1258581 L18.2314562,8.36000421 L15.0300004,8.36000421 L14.8080849,3.35531235 C16.453052,3.35531235 17.4724292,3.35531235 17.8662164,3.35531235 C18.4568972,3.35531235 18.4142889,3.59163329 18.5405942,3.78862818 C18.6668995,3.98562308 22.7137132,13.0115269 23.0012127,13.6607409 C23.2887122,14.3099549 23.2371689,14.6553798 23.0838764,15.6150689 C22.9305838,16.574758 22.3683491,19.7223001 22.2134154,20.3654966 C22.0584818,21.0086932 21.6151977,21.2853127 20.8150009,21.2853127 C20.0148041,21.2853127 3.73564654,21.2853127 3.23309985,21.2853127 C2.73055316,21.2853127 2.52541345,20.9580009 2.42664249,20.4568522 C2.32787152,19.9557035 1.34636161,16.1139079 1.26296852,15.6150689 C1.17957543,15.1162299 1.15574883,14.6096716 1.48032543,13.773978 C1.80490203,12.9382845 5.65508556,4.50652598 5.83305565,4.05114622 C6.01102574,3.59576647 6.08657794,3.45146968 6.41632102,3.45146968 C6.63614974,3.45146968 7.75393319,3.45240168 9.76967138,3.45426566 Z M4.32243726,15.2666657 C3.63025031,15.2666657 3.37539082,15.6071672 3.37539082,16.4847397 C3.37539082,17.3623121 4.12763052,19.4416082 4.80960607,19.4416082 C5.49158162,19.4416082 19.212723,19.4416082 19.9046668,19.4416082 C20.5966107,19.4416082 21.1201794,17.2426203 21.1215252,16.4714284 C21.122871,15.7002364 20.7216395,15.2590071 20.0163236,15.2590071 C19.3110077,15.2590071 5.01462421,15.2666657 4.32243726,15.2666657 Z" fill="#FFFFFF" class="icon-color"/>
      <rect id="border" x="0.208772608" y="0.3203125" width="24" height="24"/>
    </g>
  </g>
</svg>
