<svg id="unbind" viewBox="0 0 23 23" width="23px" height="23px">
  <desc>Unbind.</desc>

  <g id="Page-1" stroke="none" stroke-width="1" fill="none" fill-rule="evenodd">
    <g id="unbind-icon-moon" transform="translate(11.403633, 11.500000) scale(-1, 1) translate(-11.403633, -11.500000) translate(-1.096367, -0.500000)">
      <polygon id="Shape" points="0.00257567203 0 24.0025757 0 24.0025757 24 0.00257567203 24"/>
      <path class="icon-color" d="M11.2485296,15.504218 C11.3461363,15.6980566 11.3983765,15.9152659 11.3983765,16.1420984 C11.3983765,16.5201525 11.2540285,16.8734612 10.990078,17.1374117 L7.48036109,20.6471287 C7.21778532,20.9097044 6.86447657,21.0554271 6.48504771,21.0554271 C6.10561885,21.0554271 5.75368484,20.9110792 5.48973433,20.6471287 L3.35475964,18.512154 C3.09218387,18.2495782 2.94646119,17.8962694 2.94646119,17.5168406 C2.94646119,17.1374117 3.09080913,16.7854777 3.35475964,16.5215272 L6.86447657,13.0118103 C7.12705233,12.7492345 7.48036109,12.6035118 7.85978994,12.6035118 C8.08662241,12.6035118 8.30383169,12.655752 8.49767034,12.7533587 L9.90128216,11.3497469 C9.30326929,10.8892083 8.58152962,10.6596263 7.85978994,10.6596263 C7.00057605,10.6596263 6.14136215,10.9854402 5.48973433,11.637068 L1.9800174,15.146785 C0.676761762,16.4500406 0.676761762,18.5822658 1.9800174,19.8855215 L4.11499209,22.0204962 C4.76661991,22.672124 5.62583381,22.9979379 6.48504771,22.9979379 C7.34426161,22.9979379 8.2034755,22.672124 8.85510332,22.0204962 L12.3648203,18.5107792 C13.5635955,17.312004 13.6584527,15.4107355 12.6521414,14.0992314 L11.2485296,15.5028432 L11.2485296,15.504218 Z M22.0237592,4.11447854 L19.8887845,1.97950384 C19.2371567,1.32787602 18.3779428,1.00206211 17.5187289,1.00206211 C16.659515,1.00206211 15.8003011,1.32787602 15.1486733,1.97950384 L11.6389564,5.48922077 C10.4401811,6.687996 10.3453239,8.58926451 11.35301,9.89939386 L12.7566218,8.49578204 C12.6590151,8.30194339 12.6067749,8.08473411 12.6067749,7.85790164 C12.6067749,7.47984753 12.7511228,7.12653877 13.0150733,6.86258826 L16.5247903,3.35287134 C16.787366,3.09029557 17.1406748,2.94457289 17.5201036,2.94457289 C17.8995325,2.94457289 18.2514665,3.08892083 18.515417,3.35287134 L20.6503917,5.48784603 C20.9129675,5.7504218 21.0586902,6.10373055 21.0586902,6.48315941 C21.0586902,6.86258826 20.9143422,7.21452228 20.6503917,7.47847279 L17.1406748,10.9881897 C16.878099,11.2507655 16.5247903,11.3964882 16.1453614,11.3964882 C15.9185289,11.3964882 15.7013197,11.344248 15.507481,11.2466413 L14.1038692,12.6502531 C14.7018821,13.1107917 15.4236217,13.3403737 16.1453614,13.3403737 C17.0045753,13.3403737 17.8637892,13.0145598 18.515417,12.362932 L22.0251339,8.85321502 C23.3283896,7.54995938 23.3283896,5.41773417 22.0251339,4.11447854 L22.0237592,4.11447854 Z M6.01763535,6.98768981 L1.89340864,2.8634631 L2.8653514,1.89152034 L6.98957811,6.01574705 L6.01763535,6.98768981 Z M9.25377857,1.00206211 L10.6285208,1.00206211 L10.6285208,5.12628882 L9.25377857,5.12628882 L9.25377857,1.00206211 Z M1.00532516,9.25051553 L5.12955186,9.25051553 L5.12955186,10.6252578 L1.00532516,10.6252578 L1.00532516,9.25051553 Z M17.9888907,17.0123102 L22.1131174,21.1365369 L21.1411747,22.1084797 L17.016948,17.984253 L17.9888907,17.0123102 Z M13.3780053,18.8737112 L14.7527475,18.8737112 L14.7527475,22.9979379 L13.3780053,22.9979379 L13.3780053,18.8737112 Z M18.8769742,13.3747422 L23.0012009,13.3747422 L23.0012009,14.7494845 L18.8769742,14.7494845 L18.8769742,13.3747422 Z" id="Shape" fill-rule="nonzero"/>
    </g>
  </g>
</svg>
