<?xml version="1.0" encoding="UTF-8" standalone="no"?>
<!DOCTYPE svg PUBLIC "-//W3C//DTD SVG 1.1//EN"
 "http://www.w3.org/Graphics/SVG/1.1/DTD/svg11.dtd">
<!-- Generated by graphviz version 2.40.1 (20161225.0304)
 -->
<!-- Title: dependencies Pages: 1 -->
<svg width="504pt" height="284pt"
 viewBox="0.00 0.00 504.00 284.00" xmlns="http://www.w3.org/2000/svg" xmlns:xlink="http://www.w3.org/1999/xlink">
<g id="graph0" class="graph" transform="scale(1 1) rotate(0) translate(4 280)">
<title>dependencies</title>
<polygon fill="#ffffff" stroke="transparent" points="-4,4 -4,-280 500,-280 500,4 -4,4"/>
<text text-anchor="start" x="227.0091" y="-42.4" font-family="sans-serif" font-weight="bold" font-size="14.00" fill="#000000">Legend</text>
<polygon fill="#ffffb3" stroke="transparent" points="14,-10 14,-30 34,-30 34,-10 14,-10"/>
<text text-anchor="start" x="37.629" y="-15.4" font-family="sans-serif" font-size="14.00" fill="#000000"> &#160;Declarations</text>
<polygon fill="#8dd3c7" stroke="transparent" points="127,-10 127,-30 147,-30 147,-10 127,-10"/>
<text text-anchor="start" x="150.7251" y="-15.4" font-family="sans-serif" font-size="14.00" fill="#000000"> &#160;Module</text>
<polygon fill="#80b1d3" stroke="transparent" points="213,-10 213,-30 233,-30 233,-10 213,-10"/>
<text text-anchor="start" x="236.7812" y="-15.4" font-family="sans-serif" font-size="14.00" fill="#000000"> &#160;Bootstrap</text>
<polygon fill="#fdb462" stroke="transparent" points="310,-10 310,-30 330,-30 330,-10 310,-10"/>
<text text-anchor="start" x="333.6732" y="-15.4" font-family="sans-serif" font-size="14.00" fill="#000000"> &#160;Providers</text>
<polygon fill="#fb8072" stroke="transparent" points="406,-10 406,-30 426,-30 426,-10 406,-10"/>
<text text-anchor="start" x="429.7258" y="-15.4" font-family="sans-serif" font-size="14.00" fill="#000000"> &#160;Exports</text>
<g id="clust1" class="cluster">
<title>cluster__IxMenuDirectivesModule</title>
<polygon fill="none" stroke="#000000" stroke-dasharray="1,5" points="116,-70 116,-268 380,-268 380,-70 116,-70"/>
</g>
<g id="clust2" class="cluster">
<title>cluster__IxMenuDirectivesModule_declarations</title>
<polygon fill="none" stroke="#000000" points="128,-78 128,-130 368,-130 368,-78 128,-78"/>
</g>
<g id="clust6" class="cluster">
<title>cluster__IxMenuDirectivesModule_exports</title>
<polygon fill="none" stroke="#000000" points="124,-208 124,-260 372,-260 372,-208 124,-208"/>
</g>
<!-- IxMenuContent -->
<g id="node1" class="node">
<title>IxMenuContent</title>
<polygon fill="#ffffb3" stroke="#000000" points="360.1528,-122 255.8472,-122 255.8472,-86 360.1528,-86 360.1528,-122"/>
<text text-anchor="middle" x="308" y="-99.8" font-family="Times,serif" font-size="14.00" fill="#000000">IxMenuContent</text>
</g>
<!-- _IxMenuDirectivesModule -->
<g id="node3" class="node">
<title>_IxMenuDirectivesModule</title>
<polygon fill="#8dd3c7" stroke="#000000" points="332.3975,-187 329.3975,-191 308.3975,-191 305.3975,-187 163.6025,-187 163.6025,-151 332.3975,-151 332.3975,-187"/>
<text text-anchor="middle" x="248" y="-164.8" font-family="Times,serif" font-size="14.00" fill="#000000">_IxMenuDirectivesModule</text>
</g>
<!-- IxMenuContent&#45;&gt;_IxMenuDirectivesModule -->
<g id="edge1" class="edge">
<title>IxMenuContent&#45;&gt;_IxMenuDirectivesModule</title>
<path fill="none" stroke="#000000" d="M293.9362,-122.1061C293.9362,-122.1061 293.9362,-140.991 293.9362,-140.991"/>
<polygon fill="#000000" stroke="#000000" points="290.4363,-140.9909 293.9362,-150.991 297.4363,-140.991 290.4363,-140.9909"/>
</g>
<!-- IxMenuTrigger -->
<g id="node2" class="node">
<title>IxMenuTrigger</title>
<polygon fill="#ffffb3" stroke="#000000" points="238.2992,-122 135.7008,-122 135.7008,-86 238.2992,-86 238.2992,-122"/>
<text text-anchor="middle" x="187" y="-99.8" font-family="Times,serif" font-size="14.00" fill="#000000">IxMenuTrigger</text>
</g>
<!-- IxMenuTrigger&#45;&gt;_IxMenuDirectivesModule -->
<g id="edge2" class="edge">
<title>IxMenuTrigger&#45;&gt;_IxMenuDirectivesModule</title>
<path fill="none" stroke="#000000" d="M200.9755,-122.1061C200.9755,-122.1061 200.9755,-140.991 200.9755,-140.991"/>
<polygon fill="#000000" stroke="#000000" points="197.4755,-140.9909 200.9755,-150.991 204.4755,-140.991 197.4755,-140.9909"/>
</g>
<!-- IxMenuContent  -->
<g id="node4" class="node">
<title>IxMenuContent </title>
<polygon fill="#fb8072" stroke="#000000" points="364.1523,-252 255.8477,-252 255.8477,-216 364.1523,-216 364.1523,-252"/>
<text text-anchor="middle" x="310" y="-229.8" font-family="Times,serif" font-size="14.00" fill="#000000">IxMenuContent </text>
</g>
<!-- _IxMenuDirectivesModule&#45;&gt;IxMenuContent  -->
<g id="edge3" class="edge">
<title>_IxMenuDirectivesModule&#45;&gt;IxMenuContent </title>
<path fill="none" stroke="#000000" stroke-dasharray="5,2" d="M294.0612,-187.1061C294.0612,-187.1061 294.0612,-205.991 294.0612,-205.991"/>
<polygon fill="#000000" stroke="#000000" points="290.5613,-205.9909 294.0612,-215.991 297.5613,-205.991 290.5613,-205.9909"/>
</g>
<!-- IxMenuTrigger  -->
<g id="node5" class="node">
<title>IxMenuTrigger </title>
<polygon fill="#fb8072" stroke="#000000" points="237.799,-252 132.201,-252 132.201,-216 237.799,-216 237.799,-252"/>
<text text-anchor="middle" x="185" y="-229.8" font-family="Times,serif" font-size="14.00" fill="#000000">IxMenuTrigger </text>
</g>
<!-- _IxMenuDirectivesModule&#45;&gt;IxMenuTrigger  -->
<g id="edge4" class="edge">
<title>_IxMenuDirectivesModule&#45;&gt;IxMenuTrigger </title>
<path fill="none" stroke="#000000" stroke-dasharray="5,2" d="M200.8505,-187.1061C200.8505,-187.1061 200.8505,-205.991 200.8505,-205.991"/>
<polygon fill="#000000" stroke="#000000" points="197.3505,-205.9909 200.8505,-215.991 204.3505,-205.991 197.3505,-205.9909"/>
</g>
</g>
</svg>
