<?xml version="1.0" encoding="UTF-8" standalone="no"?>
<!DOCTYPE svg PUBLIC "-//W3C//DTD SVG 1.1//EN"
 "http://www.w3.org/Graphics/SVG/1.1/DTD/svg11.dtd">
<!-- Generated by graphviz version 2.40.1 (20161225.0304)
 -->
<!-- Title: dependencies Pages: 1 -->
<svg width="504pt" height="284pt"
 viewBox="0.00 0.00 504.00 284.00" xmlns="http://www.w3.org/2000/svg" xmlns:xlink="http://www.w3.org/1999/xlink">
<g id="graph0" class="graph" transform="scale(1 1) rotate(0) translate(4 280)">
<title>dependencies</title>
<polygon fill="#ffffff" stroke="transparent" points="-4,4 -4,-280 500,-280 500,4 -4,4"/>
<text text-anchor="start" x="227.0091" y="-42.4" font-family="sans-serif" font-weight="bold" font-size="14.00" fill="#000000">Legend</text>
<polygon fill="#ffffb3" stroke="transparent" points="14,-10 14,-30 34,-30 34,-10 14,-10"/>
<text text-anchor="start" x="37.629" y="-15.4" font-family="sans-serif" font-size="14.00" fill="#000000"> &#160;Declarations</text>
<polygon fill="#8dd3c7" stroke="transparent" points="127,-10 127,-30 147,-30 147,-10 127,-10"/>
<text text-anchor="start" x="150.7251" y="-15.4" font-family="sans-serif" font-size="14.00" fill="#000000"> &#160;Module</text>
<polygon fill="#80b1d3" stroke="transparent" points="213,-10 213,-30 233,-30 233,-10 213,-10"/>
<text text-anchor="start" x="236.7812" y="-15.4" font-family="sans-serif" font-size="14.00" fill="#000000"> &#160;Bootstrap</text>
<polygon fill="#fdb462" stroke="transparent" points="310,-10 310,-30 330,-30 330,-10 310,-10"/>
<text text-anchor="start" x="333.6732" y="-15.4" font-family="sans-serif" font-size="14.00" fill="#000000"> &#160;Providers</text>
<polygon fill="#fb8072" stroke="transparent" points="406,-10 406,-30 426,-30 426,-10 406,-10"/>
<text text-anchor="start" x="429.7258" y="-15.4" font-family="sans-serif" font-size="14.00" fill="#000000"> &#160;Exports</text>
<g id="clust1" class="cluster">
<title>cluster_SpPipesModule</title>
<polygon fill="none" stroke="#000000" stroke-dasharray="1,5" points="102,-70 102,-268 394,-268 394,-70 102,-70"/>
</g>
<g id="clust2" class="cluster">
<title>cluster_SpPipesModule_declarations</title>
<polygon fill="none" stroke="#000000" points="114,-78 114,-130 382,-130 382,-78 114,-78"/>
</g>
<g id="clust6" class="cluster">
<title>cluster_SpPipesModule_exports</title>
<polygon fill="none" stroke="#000000" points="110,-208 110,-260 386,-260 386,-208 110,-208"/>
</g>
<!-- SpDatePipe -->
<g id="node1" class="node">
<title>SpDatePipe</title>
<polygon fill="#ffffb3" stroke="#000000" points="374.0969,-122 291.9031,-122 291.9031,-86 374.0969,-86 374.0969,-122"/>
<text text-anchor="middle" x="333" y="-99.8" font-family="Times,serif" font-size="14.00" fill="#000000">SpDatePipe</text>
</g>
<!-- SpPipesModule -->
<g id="node3" class="node">
<title>SpPipesModule</title>
<polygon fill="#8dd3c7" stroke="#000000" points="251.1653,-187 248.1653,-191 227.1653,-191 224.1653,-187 146.8347,-187 146.8347,-151 251.1653,-151 251.1653,-187"/>
<text text-anchor="middle" x="199" y="-164.8" font-family="Times,serif" font-size="14.00" fill="#000000">SpPipesModule</text>
</g>
<!-- SpDatePipe&#45;&gt;SpPipesModule -->
<g id="edge1" class="edge">
<title>SpDatePipe&#45;&gt;SpPipesModule</title>
<path fill="none" stroke="#000000" d="M346.7661,-122.0225C346.7661,-139.3734 346.7661,-163 346.7661,-163 346.7661,-163 261.5129,-163 261.5129,-163"/>
<polygon fill="#000000" stroke="#000000" points="261.5129,-159.5001 251.5129,-163 261.5128,-166.5001 261.5129,-159.5001"/>
</g>
<!-- SpShowSingleErrorPipe -->
<g id="node2" class="node">
<title>SpShowSingleErrorPipe</title>
<polygon fill="#ffffb3" stroke="#000000" points="274.3725,-122 121.6275,-122 121.6275,-86 274.3725,-86 274.3725,-122"/>
<text text-anchor="middle" x="198" y="-99.8" font-family="Times,serif" font-size="14.00" fill="#000000">SpShowSingleErrorPipe</text>
</g>
<!-- SpShowSingleErrorPipe&#45;&gt;SpPipesModule -->
<g id="edge2" class="edge">
<title>SpShowSingleErrorPipe&#45;&gt;SpPipesModule</title>
<path fill="none" stroke="#000000" d="M199,-122.1061C199,-122.1061 199,-140.991 199,-140.991"/>
<polygon fill="#000000" stroke="#000000" points="195.5001,-140.9909 199,-150.991 202.5001,-140.991 195.5001,-140.9909"/>
</g>
<!-- SpDatePipe  -->
<g id="node4" class="node">
<title>SpDatePipe </title>
<polygon fill="#fb8072" stroke="#000000" points="377.5977,-252 292.4023,-252 292.4023,-216 377.5977,-216 377.5977,-252"/>
<text text-anchor="middle" x="335" y="-229.8" font-family="Times,serif" font-size="14.00" fill="#000000">SpDatePipe </text>
</g>
<!-- SpPipesModule&#45;&gt;SpDatePipe  -->
<g id="edge3" class="edge">
<title>SpPipesModule&#45;&gt;SpDatePipe </title>
<path fill="none" stroke="#000000" stroke-dasharray="5,2" d="M251.4955,-175C283.9634,-175 319.4839,-175 319.4839,-175 319.4839,-175 319.4839,-205.9775 319.4839,-205.9775"/>
<polygon fill="#000000" stroke="#000000" points="315.984,-205.9774 319.4839,-215.9775 322.984,-205.9775 315.984,-205.9774"/>
</g>
<!-- SpShowSingleErrorPipe  -->
<g id="node5" class="node">
<title>SpShowSingleErrorPipe </title>
<polygon fill="#fb8072" stroke="#000000" points="274.3728,-252 117.6272,-252 117.6272,-216 274.3728,-216 274.3728,-252"/>
<text text-anchor="middle" x="196" y="-229.8" font-family="Times,serif" font-size="14.00" fill="#000000">SpShowSingleErrorPipe </text>
</g>
<!-- SpPipesModule&#45;&gt;SpShowSingleErrorPipe  -->
<g id="edge4" class="edge">
<title>SpPipesModule&#45;&gt;SpShowSingleErrorPipe </title>
<path fill="none" stroke="#000000" stroke-dasharray="5,2" d="M199,-187.1061C199,-187.1061 199,-205.991 199,-205.991"/>
<polygon fill="#000000" stroke="#000000" points="195.5001,-205.9909 199,-215.991 202.5001,-205.991 195.5001,-205.9909"/>
</g>
</g>
</svg>
