<?xml version="1.0" encoding="UTF-8" standalone="no"?>
<!DOCTYPE svg PUBLIC "-//W3C//DTD SVG 1.1//EN"
 "http://www.w3.org/Graphics/SVG/1.1/DTD/svg11.dtd">
<!-- Generated by graphviz version 2.40.1 (20161225.0304)
 -->
<!-- Title: dependencies Pages: 1 -->
<svg width="612pt" height="284pt"
 viewBox="0.00 0.00 612.00 284.00" xmlns="http://www.w3.org/2000/svg" xmlns:xlink="http://www.w3.org/1999/xlink">
<g id="graph0" class="graph" transform="scale(1 1) rotate(0) translate(4 280)">
<title>dependencies</title>
<polygon fill="#ffffff" stroke="transparent" points="-4,4 -4,-280 608,-280 608,4 -4,4"/>
<text text-anchor="start" x="281.0091" y="-42.4" font-family="sans-serif" font-weight="bold" font-size="14.00" fill="#000000">Legend</text>
<polygon fill="#ffffb3" stroke="transparent" points="68,-10 68,-30 88,-30 88,-10 68,-10"/>
<text text-anchor="start" x="91.629" y="-15.4" font-family="sans-serif" font-size="14.00" fill="#000000"> &#160;Declarations</text>
<polygon fill="#8dd3c7" stroke="transparent" points="181,-10 181,-30 201,-30 201,-10 181,-10"/>
<text text-anchor="start" x="204.7251" y="-15.4" font-family="sans-serif" font-size="14.00" fill="#000000"> &#160;Module</text>
<polygon fill="#80b1d3" stroke="transparent" points="267,-10 267,-30 287,-30 287,-10 267,-10"/>
<text text-anchor="start" x="290.7812" y="-15.4" font-family="sans-serif" font-size="14.00" fill="#000000"> &#160;Bootstrap</text>
<polygon fill="#fdb462" stroke="transparent" points="364,-10 364,-30 384,-30 384,-10 364,-10"/>
<text text-anchor="start" x="387.6732" y="-15.4" font-family="sans-serif" font-size="14.00" fill="#000000"> &#160;Providers</text>
<polygon fill="#fb8072" stroke="transparent" points="460,-10 460,-30 480,-30 480,-10 460,-10"/>
<text text-anchor="start" x="483.7258" y="-15.4" font-family="sans-serif" font-size="14.00" fill="#000000"> &#160;Exports</text>
<g id="clust1" class="cluster">
<title>cluster_IxDynamicComponentsModule</title>
<polygon fill="none" stroke="#000000" stroke-dasharray="1,5" points="8,-70 8,-268 596,-268 596,-70 8,-70"/>
</g>
<g id="clust2" class="cluster">
<title>cluster_IxDynamicComponentsModule_declarations</title>
<polygon fill="none" stroke="#000000" points="438,-78 438,-130 588,-130 588,-78 438,-78"/>
</g>
<g id="clust4" class="cluster">
<title>cluster_IxDynamicComponentsModule_imports</title>
<polygon fill="none" stroke="#000000" points="296,-78 296,-130 430,-130 430,-78 296,-78"/>
</g>
<g id="clust5" class="cluster">
<title>cluster_IxDynamicComponentsModule_exports</title>
<polygon fill="none" stroke="#000000" points="287,-208 287,-260 439,-260 439,-208 287,-208"/>
</g>
<g id="clust7" class="cluster">
<title>cluster_IxDynamicComponentsModule_providers</title>
<polygon fill="none" stroke="#000000" points="16,-78 16,-130 288,-130 288,-78 16,-78"/>
</g>
<!-- IxCmpHostDirective -->
<g id="node1" class="node">
<title>IxCmpHostDirective</title>
<polygon fill="#ffffb3" stroke="#000000" points="579.913,-122 446.087,-122 446.087,-86 579.913,-86 579.913,-122"/>
<text text-anchor="middle" x="513" y="-99.8" font-family="Times,serif" font-size="14.00" fill="#000000">IxCmpHostDirective</text>
</g>
<!-- IxDynamicComponentsModule -->
<g id="node2" class="node">
<title>IxDynamicComponentsModule</title>
<polygon fill="#8dd3c7" stroke="#000000" points="459.8046,-187 456.8046,-191 435.8046,-191 432.8046,-187 266.1954,-187 266.1954,-151 459.8046,-151 459.8046,-187"/>
<text text-anchor="middle" x="363" y="-164.8" font-family="Times,serif" font-size="14.00" fill="#000000">IxDynamicComponentsModule</text>
</g>
<!-- IxCmpHostDirective&#45;&gt;IxDynamicComponentsModule -->
<g id="edge1" class="edge">
<title>IxCmpHostDirective&#45;&gt;IxDynamicComponentsModule</title>
<path fill="none" stroke="#000000" d="M452.973,-122.1061C452.973,-122.1061 452.973,-140.991 452.973,-140.991"/>
<polygon fill="#000000" stroke="#000000" points="449.4731,-140.9909 452.973,-150.991 456.4731,-140.991 449.4731,-140.9909"/>
</g>
<!-- IxCmpHostDirective  -->
<g id="node4" class="node">
<title>IxCmpHostDirective </title>
<polygon fill="#fb8072" stroke="#000000" points="431.4124,-252 294.5876,-252 294.5876,-216 431.4124,-216 431.4124,-252"/>
<text text-anchor="middle" x="363" y="-229.8" font-family="Times,serif" font-size="14.00" fill="#000000">IxCmpHostDirective </text>
</g>
<!-- IxDynamicComponentsModule&#45;&gt;IxCmpHostDirective  -->
<g id="edge3" class="edge">
<title>IxDynamicComponentsModule&#45;&gt;IxCmpHostDirective </title>
<path fill="none" stroke="#000000" stroke-dasharray="5,2" d="M363,-187.1061C363,-187.1061 363,-205.991 363,-205.991"/>
<polygon fill="#000000" stroke="#000000" points="359.5001,-205.9909 363,-215.991 366.5001,-205.991 359.5001,-205.9909"/>
</g>
<!-- IxBrowserModule -->
<g id="node3" class="node">
<title>IxBrowserModule</title>
<polygon fill="#8dd3c7" stroke="#000000" points="422.1346,-122 419.1346,-126 398.1346,-126 395.1346,-122 303.8654,-122 303.8654,-86 422.1346,-86 422.1346,-122"/>
<text text-anchor="middle" x="363" y="-99.8" font-family="Times,serif" font-size="14.00" fill="#000000">IxBrowserModule</text>
</g>
<!-- IxBrowserModule&#45;&gt;IxDynamicComponentsModule -->
<g id="edge2" class="edge">
<title>IxBrowserModule&#45;&gt;IxDynamicComponentsModule</title>
<path fill="none" stroke="#000000" d="M363,-122.1061C363,-122.1061 363,-140.991 363,-140.991"/>
<polygon fill="#000000" stroke="#000000" points="359.5001,-140.9909 363,-150.991 366.5001,-140.991 359.5001,-140.9909"/>
</g>
<!-- IxDynamicComponentService -->
<g id="node5" class="node">
<title>IxDynamicComponentService</title>
<ellipse fill="#fdb462" stroke="#000000" cx="152" cy="-104" rx="128.4956" ry="18"/>
<text text-anchor="middle" x="152" y="-99.8" font-family="Times,serif" font-size="14.00" fill="#000000">IxDynamicComponentService</text>
</g>
<!-- IxDynamicComponentService&#45;&gt;IxDynamicComponentsModule -->
<g id="edge4" class="edge">
<title>IxDynamicComponentService&#45;&gt;IxDynamicComponentsModule</title>
<path fill="none" stroke="#000000" d="M273.4228,-109.9985C273.4228,-109.9985 273.4228,-140.7642 273.4228,-140.7642"/>
<polygon fill="#000000" stroke="#000000" points="269.9229,-140.7642 273.4228,-150.7642 276.9229,-140.7642 269.9229,-140.7642"/>
</g>
</g>
</svg>
