
<svg id="meter" width="22px" height="21px" viewBox="0 0 22 21" version="1.1" xmlns="http://www.w3.org/2000/svg" xmlns:xlink="http://www.w3.org/1999/xlink">
  <!-- Generator: Sketch 47.1 (45422) - http://www.bohemiancoding.com/sketch -->
  <desc>Created with Sketch.</desc>
  <defs></defs>
  <g id="Page-1" stroke="none" stroke-width="1" fill="none" fill-rule="evenodd">
    <g id="Artboard" transform="translate(-342.000000, -210.000000)">
      <g id="0735-meter-icon-moon" transform="translate(341.000000, 208.000000)">
        <polygon id="Shape" points="0 0.31000042 24 0.31000042 24 24.3100004 0 24.3100004"></polygon>
        <path d="M12,2 C18.0732776,2 22.9973338,6.9240562 22.9973338,12.9973338 C22.9973338,17.1378299 20.7085137,20.7435808 17.3268336,22.6200008 L6.67316645,22.6200008 C3.29148631,20.7435808 1.00266622,17.1378299 1.00266622,12.9973338 C1.00266622,6.9240562 5.92672242,2 12,2 Z M18.2272403,19.224574 C19.890587,17.5612273 20.806115,15.3493885 20.806115,12.9973338 L18.8733336,12.9973338 L18.8733336,11.6226671 L20.7002657,11.6226671 C20.5490523,10.6562764 20.241127,9.72975098 19.7861123,8.87333361 L17.4986669,8.87333361 L17.4986669,7.49866689 L18.8788323,7.49866689 C18.6767563,7.24572821 18.4581843,7.0024122 18.2258656,6.77009353 C17.2333562,5.77758415 16.0442695,5.05038546 14.7479588,4.62698811 L14.7479588,6.12400017 L13.3732921,6.12400017 L13.3732921,4.29706809 C12.9224014,4.22696009 12.4632627,4.18984409 11.9986253,4.18984409 C11.533988,4.18984409 11.0748493,4.22558542 10.6239586,4.29706809 L10.6239586,6.12400017 L9.24929189,6.12400017 L9.24929189,4.62698811 C7.95298117,5.05176012 6.76389445,5.77758415 5.77138508,6.77009353 C5.5390664,7.0024122 5.32186906,7.24572821 5.11841839,7.49866689 L6.49858378,7.49866689 L6.49858378,8.87333361 L4.21113835,8.87333361 C3.75612366,9.72975098 3.44819832,10.6562764 3.29698498,11.6226671 L5.12391705,11.6226671 L5.12391705,12.9973338 L3.19113564,12.9973338 C3.19113564,15.3493885 4.10666368,17.5612273 5.77001041,19.224574 C5.99957976,19.4541434 6.2415211,19.6699661 6.49033578,19.8706674 L10.6225839,19.8706674 L11.4075186,8.87333361 L12.585608,8.87333361 L13.3705427,19.8706674 L17.5027909,19.8706674 C17.7529802,19.6699661 17.9935469,19.4541434 18.2231163,19.224574 L18.2272403,19.224574 Z" id="Shape" fill="#000000" class="icon-color" fill-rule="nonzero"></path>
      </g>
    </g>
  </g>
</svg>
