<svg id="ac-module" width="23px" height="23px" viewBox="0 0 23 23" version="1.1" xmlns="http://www.w3.org/2000/svg" xmlns:xlink="http://www.w3.org/1999/xlink">
  <desc>Created with Sketch.</desc>
  <defs></defs>
  <g id="Page-1" stroke="none" stroke-width="1" fill="none" fill-rule="evenodd">
    <g id="ac-module" transform="translate(-0.270508, -0.469727)">
      <path class="icon-color" d="M20.6282357,1.15163475 L3.51704823,1.15163475 C2.16714198,1.15163475 1.07264198,2.24613475 1.07264198,3.596041 L1.07264198,20.7072285 C1.07264198,22.0571348 2.16714198,23.1516348 3.51704823,23.1516348 L20.6282357,23.1516348 C21.978142,23.1516348 23.072642,22.0571348 23.072642,20.7072285 L23.072642,3.596041 C23.072642,2.24613475 21.978142,1.15163475 20.6282357,1.15163475 Z M21.6419448,19.8981979 C21.6419448,21.1871558 21.108163,21.7209375 19.8192052,21.7209375 L4.3260788,21.7209375 C3.03712092,21.7209375 2.50333921,21.1871558 2.50333921,19.8981979 L2.50333921,4.40507158 C2.50333921,3.1161137 3.03680053,2.58233198 4.3260788,2.58233198 L19.8192052,2.58233198 C21.108163,2.58233198 21.6419448,3.1161137 21.6419448,4.40507158 L21.6419448,19.8981979 Z M5.17192738,5.48929566 C5.17192738,5.13685875 5.46028484,4.84850128 5.81272175,4.84850128 L7.73959043,4.84850128 C8.09202734,4.84850128 8.3803848,5.13685875 8.3803848,5.48929566 L8.3803848,6.97241423 C8.3803848,7.32485114 8.09202734,7.61320861 7.73959043,7.61320861 L5.81272175,7.61320861 C5.46028484,7.61320861 5.17192738,7.32485114 5.17192738,6.97241423 L5.17192738,5.48929566 Z M8.70943271,5.48929566 C8.70943271,5.13685875 8.99779018,4.84850128 9.35022709,4.84850128 L11.2770958,4.84850128 C11.6295327,4.84850128 11.9178901,5.13685875 11.9178901,5.48929566 L11.9178901,6.97241423 C11.9178901,7.32485114 11.6295327,7.61320861 11.2770958,7.61320861 L9.35022709,7.61320861 C8.99779018,7.61320861 8.70943271,7.32485114 8.70943271,6.97241423 L8.70943271,5.48929566 Z M12.2469381,5.48929566 C12.2469381,5.13685875 12.5352955,4.84850128 12.8877324,4.84850128 L14.8146011,4.84850128 C15.167038,4.84850128 15.4553955,5.13685875 15.4553955,5.48929566 L15.4553955,6.97241423 C15.4553955,7.32485114 15.167038,7.61320861 14.8146011,7.61320861 L12.8877324,7.61320861 C12.5352955,7.61320861 12.2469381,7.32485114 12.2469381,6.97241423 L12.2469381,5.48929566 Z M15.7847638,5.48929566 C15.7847638,5.13685875 16.0731213,4.84850128 16.4255582,4.84850128 L18.3524268,4.84850128 C18.7048637,4.84850128 18.9932212,5.13685875 18.9932212,5.48929566 L18.9932212,6.97241423 C18.9932212,7.32485114 18.7048637,7.61320861 18.3524268,7.61320861 L16.4255582,7.61320861 C16.0731213,7.61320861 15.7847638,7.32485114 15.7847638,6.97241423 L15.7847638,5.48929566 Z M5.17192738,8.60131353 C5.17192738,8.24887662 5.46028484,7.96051916 5.81272175,7.96051916 L7.73959043,7.96051916 C8.09202734,7.96051916 8.3803848,8.24887662 8.3803848,8.60131353 L8.3803848,10.0844321 C8.3803848,10.436869 8.09202734,10.7252265 7.73959043,10.7252265 L5.81272175,10.7252265 C5.46028484,10.7252265 5.17192738,10.436869 5.17192738,10.0844321 L5.17192738,8.60131353 L5.17192738,8.60131353 Z M8.70943271,8.60131353 C8.70943271,8.24887662 8.99779018,7.96051916 9.35022709,7.96051916 L11.2770958,7.96051916 C11.6295327,7.96051916 11.9178901,8.24887662 11.9178901,8.60131353 L11.9178901,10.0844321 C11.9178901,10.436869 11.6295327,10.7252265 11.2770958,10.7252265 L9.35022709,10.7252265 C8.99779018,10.7252265 8.70943271,10.436869 8.70943271,10.0844321 L8.70943271,8.60131353 L8.70943271,8.60131353 Z M12.2469381,8.60131353 C12.2469381,8.24887662 12.5352955,7.96051916 12.8877324,7.96051916 L14.8146011,7.96051916 C15.167038,7.96051916 15.4553955,8.24887662 15.4553955,8.60131353 L15.4553955,10.0844321 C15.4553955,10.436869 15.167038,10.7252265 14.8146011,10.7252265 L12.8877324,10.7252265 C12.5352955,10.7252265 12.2469381,10.436869 12.2469381,10.0844321 L12.2469381,8.60131353 L12.2469381,8.60131353 Z M15.7847638,8.60131353 C15.7847638,8.24887662 16.0731213,7.96051916 16.4255582,7.96051916 L18.3524268,7.96051916 C18.7048637,7.96051916 18.9932212,8.24887662 18.9932212,8.60131353 L18.9932212,10.0844321 C18.9932212,10.436869 18.7048637,10.7252265 18.3524268,10.7252265 L16.4255582,10.7252265 C16.0731213,10.7252265 15.7847638,10.436869 15.7847638,10.0844321 L15.7847638,8.60131353 L15.7847638,8.60131353 Z M5.17192738,11.7133314 C5.17192738,11.3608945 5.46028484,11.072537 5.81272175,11.072537 L7.73959043,11.072537 C8.09202734,11.072537 8.3803848,11.3608945 8.3803848,11.7133314 L8.3803848,13.19645 C8.3803848,13.5488869 8.09202734,13.8372444 7.73959043,13.8372444 L5.81272175,13.8372444 C5.46028484,13.8372444 5.17192738,13.5488869 5.17192738,13.19645 L5.17192738,11.7133314 L5.17192738,11.7133314 Z M8.70943271,11.7133314 C8.70943271,11.3608945 8.99779018,11.072537 9.35022709,11.072537 L11.2770958,11.072537 C11.6295327,11.072537 11.9178901,11.3608945 11.9178901,11.7133314 L11.9178901,13.19645 C11.9178901,13.5488869 11.6295327,13.8372444 11.2770958,13.8372444 L9.35022709,13.8372444 C8.99779018,13.8372444 8.70943271,13.5488869 8.70943271,13.19645 L8.70943271,11.7133314 L8.70943271,11.7133314 Z M12.2469381,11.7133314 C12.2469381,11.3608945 12.5352955,11.072537 12.8877324,11.072537 L14.8146011,11.072537 C15.167038,11.072537 15.4553955,11.3608945 15.4553955,11.7133314 L15.4553955,13.19645 C15.4553955,13.5488869 15.167038,13.8372444 14.8146011,13.8372444 L12.8877324,13.8372444 C12.5352955,13.8372444 12.2469381,13.5488869 12.2469381,13.19645 L12.2469381,11.7133314 L12.2469381,11.7133314 Z M15.7847638,11.7133314 C15.7847638,11.3608945 16.0731213,11.072537 16.4255582,11.072537 L18.3524268,11.072537 C18.7048637,11.072537 18.9932212,11.3608945 18.9932212,11.7133314 L18.9932212,13.19645 C18.9932212,13.5488869 18.7048637,13.8372444 18.3524268,13.8372444 L16.4255582,13.8372444 C16.0731213,13.8372444 15.7847638,13.5488869 15.7847638,13.19645 L15.7847638,11.7133314 L15.7847638,11.7133314 Z M18.4562355,14.9230704 L5.73070007,14.9230704 C4.9303479,14.9230704 4.27898042,14.2290901 4.27898042,13.3761928 L4.27898042,5.41720629 C4.27898042,4.56430898 4.9300275,3.87032867 5.73070007,3.87032867 L18.4565559,3.87032867 C19.2569081,3.87032867 19.9082756,4.56430898 19.9082756,5.41720629 L19.9082756,13.3761928 C19.9079552,14.2290901 19.2565877,14.9230704 18.4562355,14.9230704 Z M5.73070007,4.50151113 C5.25651223,4.50151113 4.87107442,4.91226032 4.87107442,5.41752669 L4.87107442,13.3765132 C4.87107442,13.8817796 5.25651223,14.2928492 5.73070007,14.2928492 L18.4565559,14.2928492 C18.9307438,14.2928492 19.316502,13.8821 19.316502,13.3765132 L19.316502,5.41720629 C19.316502,4.91226032 18.9310642,4.50119073 18.4565559,4.50119073 L5.73070007,4.50119073 L5.73070007,4.50151113 Z M6.69221203,16.3879264 L11.7948576,16.3879264 L11.7948576,16.9037658 L6.69221203,16.9037658 L6.69221203,16.3879264 Z M6.69221203,17.1610448 L8.18109775,17.1610448 L8.18109775,17.6422813 L6.69221203,17.6422813 L6.69221203,17.1610448 L6.69221203,17.1610448 Z M8.49925216,17.1610448 L9.98813789,17.1610448 L9.98813789,17.6422813 L8.49925216,17.6422813 L8.49925216,17.1610448 Z M10.3062923,17.1610448 L11.795178,17.1610448 L11.795178,17.6422813 L10.3062923,17.6422813 L10.3062923,17.1610448 L10.3062923,17.1610448 Z M14.5786086,15.9238511 L14.8028866,16.1481291 L10.1510799,20.7999358 L9.92680185,20.5756578 L14.5786086,15.9238511 Z M13.8931388,20.7229003 L13.8880124,20.7229003 C13.0693976,20.7180943 12.5083822,19.7540192 12.4468659,19.6438026 L12.388874,19.5396735 L12.7198443,19.3560859 L12.7771954,19.4614966 C12.9136846,19.7059596 13.3805033,20.3429092 13.8899348,20.3457928 C14.2481389,20.3457928 14.598333,20.047503 14.9334685,19.4589334 C15.2077285,18.9783376 15.5604858,18.7101652 15.9827692,18.662426 C16.8151611,18.5691904 17.5831532,19.3897276 17.6151929,19.4246509 L17.695933,19.5121193 L17.4194302,19.7671555 L17.3386901,19.6803278 C17.3319618,19.6732791 16.6607297,18.9639197 16.0253821,19.0366499 C15.7293351,19.070612 15.4723765,19.2753458 15.2612348,19.6454046 C14.8533692,20.3605311 14.3932788,20.7229003 13.8931388,20.7229003 L13.8931388,20.7229003 Z" id="Shape" fill="#000000" fill-rule="nonzero"></path>
      <rect id="border" x="0.0726419817" y="0.151634754" width="24" height="24"></rect>
    </g>
  </g>
</svg>
