<svg width="24px" height="24px" viewBox="0 0 24 24" version="1.1" xmlns="http://www.w3.org/2000/svg" xmlns:xlink="http://www.w3.org/1999/xlink">
  <!-- Generator: Sketch 48 (47235) - http://www.bohemiancoding.com/sketch -->
  <desc>Created with Sketch.</desc>
  <defs></defs>
  <g id="Page-1" stroke="none" stroke-width="1" fill="none" fill-rule="evenodd">
    <g id="ac-module-blue-reversed" transform="translate(-0.15, -0.1601908)">
      <rect id="Rectangle-21" fill="#0076BE" x="0.164935041" y="0.147781528" width="23.9977014" height="23.9977014" rx="2.18160922"></rect>
      <g id="solar-panel" transform="translate(1.742513, 1.728516)">
        <path d="M8.77784752,20.5817145 L12.6270671,16.3433626" id="Path-11" stroke="#FFFFFF" stroke-width="0.75"></path>
        <g id="dc" transform="translate(0.056344, 16.336210)" stroke="#FFFFFF" stroke-width="0.75">
          <path d="M0.586204349,1.4911425 L6.82677036,1.4911425" id="Path-12"></path>
          <path d="M0.586204349,3.12317934 L2.08620435,3.12317934" id="Path-12"></path>
          <path d="M2.96006503,3.12317934 L4.46006503,3.12317934" id="Path-12"></path>
          <path d="M5.3339257,3.12317934 L6.8339257,3.12317934" id="Path-12"></path>
        </g>
        <path d="M14.2638763,18.5969295 C14.488897,20.0277252 16.6214315,20.0942508 16.9438685,18.5969295 C17.2663056,17.0996082 19.357566,17.1515212 19.6274498,18.5969295" id="ac" stroke="#FFFFFF" stroke-width="0.75"></path>
        <rect id="Rectangle-23" stroke="#FFFFFF" x="1.0942669" y="1.42198514" width="18.7804362" height="12.3832052" rx="2"></rect>
        <g id="cells" transform="translate(1.208595, 1.789618)" fill="#FFFFFF">
          <g id="solar-cell" transform="translate(0.898373, 0.525681)">
            <rect id="Rectangle-24" x="0.692290733" y="0.862639838" width="2.72998134" height="2.22285202" rx="0.5"></rect>
          </g>
          <g id="solar-cell" transform="translate(5.127847, 0.525681)">
            <rect id="Rectangle-24" x="0.692290733" y="0.862639838" width="2.72998134" height="2.22285202" rx="0.5"></rect>
          </g>
          <g id="solar-cell" transform="translate(9.357320, 0.525681)">
            <rect id="Rectangle-24" x="0.692290733" y="0.862639838" width="2.72998134" height="2.22285202" rx="0.5"></rect>
          </g>
          <g id="solar-cell" transform="translate(13.586794, 0.525681)">
            <rect id="Rectangle-24" x="0.692290733" y="0.862639838" width="2.72998134" height="2.22285202" rx="0.5"></rect>
          </g>
          <g id="solar-cell" transform="translate(0.898373, 3.885668)">
            <rect id="Rectangle-24" x="0.692290733" y="0.862639838" width="2.72998134" height="2.22285202" rx="0.5"></rect>
          </g>
          <g id="solar-cell" transform="translate(5.127847, 3.885668)">
            <rect id="Rectangle-24" x="0.692290733" y="0.862639838" width="2.72998134" height="2.22285202" rx="0.5"></rect>
          </g>
          <g id="solar-cell" transform="translate(9.357320, 3.885668)">
            <rect id="Rectangle-24" x="0.692290733" y="0.862639838" width="2.72998134" height="2.22285202" rx="0.5"></rect>
          </g>
          <g id="solar-cell" transform="translate(13.586794, 3.885668)">
            <rect id="Rectangle-24" x="0.692290733" y="0.862639838" width="2.72998134" height="2.22285202" rx="0.5"></rect>
          </g>
          <g id="solar-cell" transform="translate(0.898373, 7.245655)">
            <rect id="Rectangle-24" x="0.692290733" y="0.862639838" width="2.72998134" height="2.22285202" rx="0.5"></rect>
          </g>
          <g id="solar-cell" transform="translate(5.127847, 7.245655)">
            <rect id="Rectangle-24" x="0.692290733" y="0.862639838" width="2.72998134" height="2.22285202" rx="0.5"></rect>
          </g>
          <g id="solar-cell" transform="translate(9.357320, 7.245655)">
            <rect id="Rectangle-24" x="0.692290733" y="0.862639838" width="2.72998134" height="2.22285202" rx="0.5"></rect>
          </g>
          <g id="solar-cell" transform="translate(13.586794, 7.245655)">
            <rect id="Rectangle-24" x="0.692290733" y="0.862639838" width="2.72998134" height="2.22285202" rx="0.5"></rect>
          </g>
        </g>
      </g>
    </g>
  </g>
</svg>
