<svg id="commission" viewBox="0 0 15 21" width="15px" height="21px">
  <desc>Commission.</desc>

  <g id="Page-1" stroke="none" stroke-width="1" fill="none" fill-rule="evenodd">
    <g id="commission" transform="translate(-4.858398, -1.500000)">
      <polygon id="Shape" points="0 0 24 0 24 24 0 24"/>
      <path class="icon-color" d="M12,2 C8.14,2 5,5.14 5,9 C5,14.25 12,22 12,22 C12,22 19,14.25 19,9 C19,5.14 15.86,2 12,2 Z M16,10 L13,10 L13,13 L11,13 L11,10 L8,10 L8,8 L11,8 L11,5 L13,5 L13,8 L16,8 L16,10 Z" id="Shape" fill-rule="nonzero"/>
    </g>
  </g>
</svg>
