<svg id="decomm" width="21px" height="23px" viewBox="0 0 21 23" version="1.1" xmlns="http://www.w3.org/2000/svg">
  <desc>Created with Sketch.</desc>
  <defs></defs>
  <g id="Page-1" stroke="none" stroke-width="1" fill="none" fill-rule="evenodd">
    <g id="delete" transform="translate(-2.000000, -1.000000)">
      <path class="icon-color" d="M7.65207018,4.97287094 C7.73963068,4.36494233 7.90392688,3.88262436 8.13866328,3.44370545 C8.5043289,2.75997019 9.04092833,2.22337076 9.72466359,1.85770514 C10.4083988,1.49203952 11.1974485,1.29730772 12.4025861,1.29730772 L13.0664137,1.29730772 C14.2715512,1.29730772 15.0606009,1.49203952 15.7443361,1.85770514 C16.4280714,2.22337076 16.9646708,2.75997019 17.3303364,3.44370545 C17.5650728,3.88262436 17.729369,4.36494233 17.8169295,4.97287094 L21.6035857,4.97287094 C21.8569149,4.97287094 22.0110384,5.01149543 22.1466553,5.08402415 C22.2822722,5.15655286 22.3887051,5.26298581 22.4612338,5.39860272 C22.5337626,5.53421963 22.572387,5.68834306 22.572387,5.9416723 L22.572387,6.11115431 C22.572387,6.36448355 22.5337626,6.51860698 22.4612338,6.65422389 C22.3887051,6.7898408 22.2822722,6.89627375 22.1466553,6.96880246 C22.0110384,7.04133118 21.8569149,7.07995567 21.6035857,7.07995567 L20.6993025,7.07995567 C20.8085496,7.40857661 20.8656205,7.84023655 20.8656205,8.6212564 L20.8656205,20.0968303 C20.8656205,21.209706 20.749747,21.6132616 20.5321609,22.0201124 C20.3145747,22.4269631 19.9952759,22.7462619 19.5884251,22.9638481 C19.1815744,23.1814343 18.7780188,23.2973077 17.665143,23.2973077 L8.03783097,23.2973077 C6.92495524,23.2973077 6.52139961,23.1814343 6.11454888,22.9638481 C5.70769815,22.7462619 5.38839931,22.4269631 5.17081316,22.0201124 C4.953227,21.6132616 4.83735353,21.209706 4.83735353,20.0968303 L4.83735353,8.6212564 C4.83735353,7.84023655 4.89442445,7.40857661 5.00367149,7.07995567 L3.51899491,7.07995567 C3.26566566,7.07995567 3.11154223,7.04133118 2.97592532,6.96880246 C2.84030841,6.89627375 2.73387547,6.7898408 2.66134675,6.65422389 C2.58881803,6.51860698 2.55019354,6.36448355 2.55019354,6.11115431 L2.55019354,5.9416723 C2.55019354,5.68834306 2.58881803,5.53421963 2.66134675,5.39860272 C2.73387547,5.26298581 2.84030841,5.15655286 2.97592532,5.08402415 C3.11154223,5.01149543 3.26566566,4.97287094 3.51899491,4.97287094 L7.65207018,4.97287094 Z M9.39331426,4.97287094 L16.0756855,4.97287094 C16.0166914,4.69650735 15.9307913,4.46632055 15.8167909,4.25315845 C15.6110936,3.86853787 15.3195037,3.576948 14.9348831,3.37125066 C14.4820508,3.1290733 13.9523879,3.01370925 13.0664137,3.01370925 L12.4025861,3.01370925 C11.5166118,3.01370925 10.9869489,3.1290733 10.5341166,3.37125066 C10.149496,3.576948 9.85790614,3.86853787 9.6522088,4.25315845 C9.53820846,4.46632055 9.45230836,4.69650735 9.39331426,4.97287094 Z M16.7464662,8.53354466 C16.1145046,8.53354466 15.6021985,9.04585075 15.6021985,9.67781234 L15.6021985,9.67781234 L15.6021985,19.0362235 C15.6021985,19.6681851 16.1145046,20.1804912 16.7464662,20.1804912 L16.7464662,20.1804912 C17.3784278,20.1804912 17.8907339,19.6681851 17.8907339,19.0362235 L17.8907339,19.0362235 L17.8907339,9.67781234 C17.8907339,9.04585075 17.3784278,8.53354466 16.7464662,8.53354466 Z M9.08018342,8.53354466 C8.44822183,8.53354466 7.93591574,9.04585075 7.93591574,9.67781234 L7.93591574,19.0362235 C7.93591574,19.6681851 8.44822183,20.1804912 9.08018342,20.1804912 C9.71214501,20.1804912 10.2244511,19.6681851 10.2244511,19.0362235 L10.2244511,19.0362235 L10.2244511,9.67781234 C10.2244511,9.04585075 9.71214501,8.53354466 9.08018342,8.53354466 Z M12.9027527,8.53354466 C12.2707911,8.53354466 11.758485,9.04585075 11.758485,9.67781234 L11.758485,9.67781234 L11.758485,19.0362235 C11.758485,19.6681851 12.2707911,20.1804912 12.9027527,20.1804912 L12.9027527,20.1804912 C13.5347142,20.1804912 14.0470203,19.6681851 14.0470203,19.0362235 L14.0470203,19.0362235 L14.0470203,9.67781234 C14.0470203,9.04585075 13.5347142,8.53354466 12.9027527,8.53354466 Z"></path>
      <rect id="border" x="0.561290294" y="0.29730772" width="24" height="24"></rect>
    </g>
  </g>
</svg>
