<svg id="discover" viewBox="0 0 22 22" width="22px" height="22px">
  <desc>Discover.</desc>

  <g id="Page-1" stroke="none" stroke-width="1" fill="none" fill-rule="evenodd">
    <g id="discover" transform="translate(-1.000000, -1.000000)">
      <g transform="translate(1.313007, 1.000000)" id="Combined-Shape" class="icon-color">
        <path d="M15.7941189,6.16338976 C14.6695313,12.9748915 12.8603082,14.9636285 6.06145833,15.7969835 C6.88502604,9.66498481 8.87961155,6.92501085 15.7941189,6.16338976 Z M13.9567274,7.96557075 C11.5243059,8.27818972 9.78297481,9.63049877 9.32779409,10.4908945 C9.16450292,10.8001312 9.09950082,11.1375575 9.32779409,11.3839126 C9.47515759,11.5812759 10.1350763,12.2893274 10.2780987,12.4092556 C10.6058814,12.7628399 11.2349828,12.6348293 11.5683396,12.4092556 C12.5550252,11.8229786 13.5025066,9.90783079 13.9567274,7.96557075 Z"/>
        <path d="M10.8895544,21.7359809 C4.96023587,21.7359809 0.153573495,16.9293185 0.153573495,11 C0.153573495,5.07068147 4.96023587,0.264019097 10.8895544,0.264019097 C16.8188729,0.264019097 21.6255353,5.07068147 21.6255353,11 C21.6255353,16.9293185 16.8188729,21.7359809 10.8895544,21.7359809 Z M10.8895544,19.5561921 C15.6150088,19.5561921 19.4457465,15.7254544 19.4457465,11 C19.4457465,6.27454557 15.6150088,2.44380787 10.8895544,2.44380787 C6.16409997,2.44380787 2.33336227,6.27454557 2.33336227,11 C2.33336227,15.7254544 6.16409997,19.5561921 10.8895544,19.5561921 Z"/>
      </g>
      <rect id="border" x="0.313007294" y="0" width="24" height="24"/>
    </g>
  </g>
</svg>
