<svg id="ground-fault-monitor" width="23px" height="23px" viewBox="0 0 23 23" version="1.1" xmlns="http://www.w3.org/2000/svg" xmlns:xlink="http://www.w3.org/1999/xlink">
  <!-- Generator: Sketch 47.1 (45422) - http://www.bohemiancoding.com/sketch -->
  <desc>Created with Sketch.</desc>
  <defs></defs>
  <g id="Page-1" stroke="none" stroke-width="1" fill="none" fill-rule="evenodd">
    <g id="ground-fault-monitor" transform="translate(-0.534668, -0.506348)">
      <rect id="border" x="0.0726419817" y="0.151634754" width="24" height="24"></rect>
      <path d="M20.6282357,1.15163475 L3.51704823,1.15163475 C2.16714198,1.15163475 1.07264198,2.24613475 1.07264198,3.596041 L1.07264198,20.7072285 C1.07264198,22.0571348 2.16714198,23.1516348 3.51704823,23.1516348 L20.6282357,23.1516348 C21.978142,23.1516348 23.072642,22.0571348 23.072642,20.7072285 L23.072642,3.596041 C23.072642,2.24613475 21.978142,1.15163475 20.6282357,1.15163475 Z M21.6419448,19.8981979 C21.6419448,21.1871558 21.108163,21.7209375 19.8192052,21.7209375 L4.3260788,21.7209375 C3.03712092,21.7209375 2.50333921,21.1871558 2.50333921,19.8981979 L2.50333921,4.40507158 C2.50333921,3.1161137 3.03680053,2.58233198 4.3260788,2.58233198 L19.8192052,2.58233198 C21.108163,2.58233198 21.6419448,3.1161137 21.6419448,4.40507158 L21.6419448,19.8981979 Z M18.4352495,12.8987219 L5.70971405,12.8987219 C4.90936188,12.8987219 4.2579944,12.3318465 4.2579944,11.6351603 L4.2579944,5.13389021 C4.2579944,4.43720404 4.90904149,3.87032867 5.70971405,3.87032867 L18.4355699,3.87032867 C19.2359221,3.87032867 19.8872896,4.43720404 19.8872896,5.13389021 L19.8872896,11.6351603 C19.8869692,12.3318465 19.2356017,12.8987219 18.4352495,12.8987219 Z M5.70955386,4.48874439 C5.23536602,4.48874439 4.8499282,4.81503811 4.8499282,5.21641501 L4.8499282,11.5389285 C4.8499282,11.9403054 5.23536602,12.2668536 5.70955386,12.2668536 L18.4354097,12.2668536 C18.9095975,12.2668536 19.2953558,11.9405599 19.2953558,11.5389285 L19.2953558,5.21616049 C19.2953558,4.81503811 18.9099179,4.48848987 18.4354097,4.48848987 L5.70955386,4.48848987 L5.70955386,4.48874439 Z M8.01801552,15.3983935 L16.1272684,15.3983935 L16.1272684,16.1483935 L8.01801552,16.1483935 L8.01801552,15.3983935 Z M12.4514937,12.6467653 L12.4514937,20.2113037 L11.6937902,20.2113037 L11.6937902,12.6467653 L12.4514937,12.6467653 Z M9.03217567,17.4530313 L15.1131083,17.4530313 L15.1131083,18.2030313 L9.03217567,18.2030313 L9.03217567,17.4530313 Z M10.0625712,19.5076691 L14.0827128,19.5076691 L14.0827128,20.2576691 L10.0625712,20.2576691 L10.0625712,19.5076691 Z" id="Shape" class="icon-color" fill-rule="nonzero"></path>
      <g id="circles" transform="translate(5.572642, 6.000000)" class="icon-color">
        <circle id="Path" cx="1.85229492" cy="2.31745463" r="1.5"></circle>
        <circle id="Path" cx="6.23095703" cy="2.31745463" r="1.5"></circle>
        <circle id="Path" cx="10.6096191" cy="2.31745463" r="1.5"></circle>
      </g>
    </g>
  </g>
</svg>
