<svg id="get-device-list" viewBox="0 0 22 18" width="22px" height="18px">
  <desc>Created with Sketch.</desc>

  <g id="Page-1" stroke="none" stroke-width="1" fill="none" fill-rule="evenodd">
    <g id="get-device-list" transform="translate(-1.000000, -3.000000)">
      <g class="icon-color" id="scan-wifi" transform="translate(0.998143, 3.045000)">
        <path d="M6.14566749,1.12903727 C5.83638269,1.12903727 5.56406874,1.33280312 5.47681326,1.62952449 L1.31852178,15.770229 C1.29439549,15.852273 1.28214574,15.9373499 1.28214574,16.0228676 C1.28214574,16.5174386 1.68307474,16.9183676 2.17764573,16.9183676 L19.9138937,16.9183676 C19.9975761,16.9183676 20.0808456,16.906638 20.1612717,16.8835211 C20.6365975,16.746898 20.9111702,16.2508154 20.7745471,15.7754896 L16.7510004,1.77715924 C16.6406964,1.39340031 16.2896437,1.12903727 15.890347,1.12903727 L6.14566749,1.12903727 Z M6.14566749,0.233537279 L15.890347,0.233537279 C16.6889405,0.233537279 17.3910459,0.762263363 17.6116539,1.52978121 L21.6352006,15.5281116 C21.9084468,16.4787631 21.3593013,17.4709283 20.4086497,17.7441745 C20.2477975,17.7904084 20.0812586,17.8138676 19.9138937,17.8138676 L2.17764573,17.8138676 C1.18850375,17.8138676 0.386645748,17.0120096 0.386645748,16.0228676 C0.386645748,15.8518321 0.411145243,15.6816784 0.459397819,15.5175904 L4.61768931,1.37688589 C4.81702193,0.699034477 5.43911528,0.233537279 6.14566749,0.233537279 Z" fill-rule="nonzero"/>
        <path d="M9.25059827,6.88223859 L9.25059827,11.0324931 L13.3448207,11.0324931 L13.3448207,6.88223859 L9.25059827,6.88223859 Z M9.25059827,6.17548269 L9.25059827,1.7643603 L13.3448207,1.7643603 L13.3448207,6.17548269 L9.25059827,6.17548269 Z M17.5571937,6.88223859 C17.9733486,8.43701427 18.3471325,9.82682236 18.6723113,11.0324931 L14.0515766,11.0324931 L14.0515766,6.88223859 L17.5571937,6.88223859 Z M17.3681446,6.17548269 C17.0569756,5.01142892 16.7239692,3.76195198 16.3715099,2.43438472 C16.3715099,2.43438472 16.3715099,2.43438472 16.3715099,2.43438472 C16.2666397,2.0393824 15.9091081,1.76438672 15.5004216,1.76438672 L15.5004216,1.7643603 L15.3653729,1.7643603 L14.0515766,1.7643603 L14.0515766,6.17548269 L17.3681446,6.17548269 Z M4.66465357,6.88223859 C4.19704706,8.5200476 3.80207429,9.90346577 3.47973526,11.0324931 L8.54384237,11.0324931 L8.54384237,6.88223859 L4.66465357,6.88223859 Z M4.86643777,6.17548269 C5.18458488,5.06116282 5.53359633,3.83874436 5.91347211,2.50822732 L5.91347899,2.50822929 C6.03918552,2.06794146 6.44157308,1.7643603 6.89945461,1.7643603 L6.89945461,1.7643603 L8.54384237,1.7643603 L8.54384237,6.17548269 L4.86643777,6.17548269 Z M9.25059827,11.739249 L9.25059827,16.1057477 L13.3448207,16.1368755 L13.3448207,11.739249 L9.25059827,11.739249 Z M18.8630493,11.739249 C19.1515597,12.8076197 19.395548,13.708122 19.5897544,14.4245815 C19.7901266,15.1637875 19.3533154,15.9254662 18.6141093,16.1258383 C18.4924331,16.1588204 18.3668276,16.1750567 18.2407642,16.1740986 L14.0515766,16.1422488 L14.0515766,11.739249 L18.8630493,11.739249 Z M3.27795605,11.739249 C2.70032069,13.7624939 2.40996404,14.7795799 2.4068861,14.7905072 C2.4068861,14.7905072 2.4068861,14.7905072 2.4068861,14.7905072 C2.37592225,14.9004346 2.36324638,15.0147058 2.36936588,15.1287469 C2.40019241,15.70322 2.89088473,16.1439326 3.46535785,16.1131061 L3.46535677,16.113086 L4.30309312,16.0681326 L8.54384237,16.1003744 L8.54384237,11.739249 L3.27795605,11.739249 Z" id="Combined-Shape"/>
      </g>
      <rect id="border" x="0" y="0" width="24" height="24"/>
    </g>
  </g>
</svg>
