<svg id="log" viewBox="0 0 22 22" width="22px" height="22px">
  <desc>Created with Sketch.</desc>

  <g id="Page-1" stroke="none" stroke-width="1" fill="none" fill-rule="evenodd">
    <g id="log" transform="translate(-1.000000, -0.500000)">
      <polygon id="Shape" points="0.374023438 0 24.3740234 0 24.3740234 24 0.374023438 24"/>
      <g class="icon-color" id="icon" transform="translate(1.374023, 1.000000)">
        <path d="M16.151006,8.29797228 C15.6028717,8.13513138 15.0222903,8.047698 14.4212878,8.047698 C12.9665652,8.047698 11.6314858,8.55995167 10.5865903,9.41391839 L3.01702465,9.41391839 L3.01702465,10.6033628 L9.47467289,10.6033628 C9.17308015,11.0278419 8.92475565,11.4928139 8.73944687,11.9885313 L3.01702465,11.9885313 L3.01702465,13.1779757 L8.42882839,13.1779757 C8.38180094,13.4822979 8.35740076,13.794092 8.35740076,14.1115851 C8.35740076,14.2634738 8.36298515,14.4140582 8.37395981,14.5631442 L3.01702465,14.5631442 L3.01702465,15.7525886 L8.58205874,15.7525886 C8.89655214,16.8739619 9.52538001,17.8639038 10.3674964,18.6213683 L1.55987521,18.6213683 C1.00759046,18.6213683 0.559875213,18.173653 0.559875213,17.6213683 L0.559875213,1.16770121 L0.559875213,1.16770121 C0.559875213,0.615416462 1.00759046,0.167701211 1.55987521,0.167701211 L1.55987521,0.167701211 C4.59111701,0.167701211 7.6223588,0.167701211 10.6536006,0.167701211 C11.6262676,0.167701211 11.843045,0.517042436 12.1404061,0.814403545 C12.4377672,1.11176465 15.2834921,3.909795 15.7087394,4.38273685 C16.1339868,4.8556787 16.151006,4.97745907 16.151006,5.8695424 C16.151006,6.67901902 16.151006,7.48849565 16.151006,8.29797228 Z M11.002361,1.48680554 C11.002361,3.66745368 11.002361,4.85689811 11.002361,5.05513885 C11.002361,5.35249996 11.2997221,5.64986107 11.8944444,5.64986107 C12.2909258,5.64986107 13.3812499,5.64986107 15.1654166,5.64986107 L11.002361,1.48680554 Z M3.01702465,6.83930551 L3.01702465,8.02874994 L13.7220246,8.02874994 L13.7220246,6.83930551 L3.01702465,6.83930551 Z" id="Combined-Shape"/>
        <path d="M16.8018025,18.414679 C16.0964802,18.8057043 15.2848851,19.0283523 14.4212878,19.0283523 C11.7058323,19.0283523 9.5045206,16.8270406 9.5045206,14.1115851 C9.5045206,11.3961295 11.7058323,9.19481785 14.4212878,9.19481785 C17.1367434,9.19481785 19.338055,11.3961295 19.338055,14.1115851 C19.338055,14.9106135 19.147456,15.6651252 18.8092429,16.3321352 C18.8845077,16.3752546 18.9553626,16.4289547 19.0196435,16.4932356 L19.0196435,16.4932356 L21.1136521,18.5872443 C21.5041764,18.9777686 21.5041764,19.6109335 21.1136521,20.0014578 L20.4426683,20.6724416 C20.052144,21.0629659 19.4189791,21.0629659 19.0284548,20.6724416 L16.9344461,18.578433 C16.8836155,18.5276023 16.8394009,18.472661 16.8018025,18.414679 Z M14.4212878,17.4678598 C16.2749072,17.4678598 17.7775626,15.9652044 17.7775626,14.1115851 C17.7775626,12.2579657 16.2749072,10.7553103 14.4212878,10.7553103 C12.5676684,10.7553103 11.065013,12.2579657 11.065013,14.1115851 C11.065013,15.9652044 12.5676684,17.4678598 14.4212878,17.4678598 Z" id="Combined-Shape"/>
      </g>
    </g>
  </g>
</svg>
