<svg id="met-station" width="23px" height="23px" viewBox="0 0 23 23" version="1.1" xmlns="http://www.w3.org/2000/svg" xmlns:xlink="http://www.w3.org/1999/xlink">
  <desc>Created with Sketch.</desc>
  <defs></defs>
  <g id="Page-1" stroke="none" stroke-width="1" fill="none" fill-rule="evenodd">
    <g id="met-station" transform="translate(-1.421387, -0.506348)">
      <rect id="border" x="0.600718154" y="0.186546864" width="24" height="24"></rect>
      <path class="icon-color" d="M21.2008777,1.15163475 L4.08969021,1.15163475 C2.73978396,1.15163475 1.64528396,2.24613475 1.64528396,3.596041 L1.64528396,20.7072285 C1.64528396,22.0571348 2.73978396,23.1516348 4.08969021,23.1516348 L21.2008777,23.1516348 C22.550784,23.1516348 23.645284,22.0571348 23.645284,20.7072285 L23.645284,3.596041 C23.645284,2.24613475 22.550784,1.15163475 21.2008777,1.15163475 Z M22.2145867,19.8981979 C22.2145867,21.1871558 21.680805,21.7209375 20.3918471,21.7209375 L4.89872079,21.7209375 C3.6097629,21.7209375 3.07598119,21.1871558 3.07598119,19.8981979 L3.07598119,4.40507158 C3.07598119,3.1161137 3.60944251,2.58233198 4.89872079,2.58233198 L20.3918471,2.58233198 C21.680805,2.58233198 22.2145867,3.1161137 22.2145867,4.40507158 L22.2145867,19.8981979 Z" id="Shape" fill="#000000" fill-rule="nonzero"></path>
      <rect class="icon-color" id="Rectangle-18" fill="#000000" x="11.9940287" y="8.50634766" width="1" height="5"></rect>
      <rect class="icon-color" id="Rectangle-18" fill="#000000" transform="translate(10.313008, 14.723782) rotate(-125.000000) translate(-10.313008, -14.723782) " x="9.79715153" y="12.0335116" width="1.03171372" height="5.38054078"></rect>
      <rect class="icon-color" id="Rectangle-18" fill="#000000" transform="translate(14.804952, 14.723782) scale(-1, 1) rotate(-125.000000) translate(-14.804952, -14.723782) " x="14.2890949" y="12.0335116" width="1.03171372" height="5.38054078"></rect>
      <rect class="icon-color" id="Rectangle-19" fill="#000000" x="11.572642" y="13.4523926" width="2" height="8.54760742"></rect>
      <circle class="icon-color" id="Oval-7" fill="#000000" cx="12.4827982" cy="6.80029297" r="2.33898926"></circle>
      <circle class="icon-color" id="Oval-7" fill="#000000" cx="6.36854042" cy="17.2875977" r="2.33898926"></circle>
      <circle class="icon-color" id="Oval-7" fill="#000000" cx="18.597056" cy="17.2875977" r="2.33898926"></circle>
    </g>
  </g>
</svg>
