<svg id="meter" width="23px" height="23px" viewBox="0 0 23 23" version="1.1" xmlns="http://www.w3.org/2000/svg" xmlns:xlink="http://www.w3.org/1999/xlink">
  <desc>Created with Sketch.</desc>
  <defs></defs>
  <g id="Page-1" stroke="none" stroke-width="1" fill="none" fill-rule="evenodd">
    <g id="meter" transform="translate(-1.923798, -1.363802)">
      <rect id="border" x="0.99854555" y="0.794559419" width="24" height="24"></rect>
      <path class="icon-color" d="M12.998015,23.7947363 C6.93274486,23.7947363 1.99854555,18.8598296 1.99854555,12.7949131 C1.99854555,6.72928925 6.93274486,1.79438258 12.998015,1.79438258 C19.0636389,1.79438258 23.9985455,6.72928925 23.9985455,12.7949131 C23.9981919,18.8598296 19.0636389,23.7947363 12.998015,23.7947363 Z M12.9980603,3.2264556 C7.72261748,3.2264556 3.43060169,7.51879131 3.43060169,12.794554 C3.43060169,18.0703167 7.72261748,22.3623325 12.9980603,22.3623325 C18.273823,22.3623325 22.5661587,18.0703167 22.5661587,12.794554 C22.5661587,7.51879131 18.273823,3.2264556 12.9980603,3.2264556 Z M13.0383979,20.1677516 C12.2071219,20.1677516 11.5307922,19.4914219 11.5307922,18.6601458 C11.5307922,17.8288698 12.2071219,17.1525401 13.0383979,17.1525401 C13.8696739,17.1525401 14.5460036,17.8288698 14.5460036,18.6601458 C14.5460036,19.4914219 13.8700411,20.1677516 13.0383979,20.1677516 Z M13.0383979,17.6974057 C12.5075844,17.6974057 12.075327,18.1293324 12.075327,18.6604766 C12.075327,19.1916208 12.5072537,19.6235475 13.0383979,19.6235475 C13.5692114,19.6235475 14.0014688,19.1916208 14.0014688,18.6604766 C14.0014688,18.1293324 13.5692114,17.6974057 13.0383979,17.6974057 Z M11.9798457,15.5604118 L8.45692156,12.1969577 L8.28081153,12.3804168 L11.6256837,15.5779277 L6.38829362,15.5779277 C5.74965161,15.5779277 5.23010133,15.0563162 5.23010133,14.4154792 L5.23010133,11.3657457 C5.23010133,10.8624244 5.43117404,10.3757 5.8282589,9.91844316 L5.86435752,9.8771207 L5.96961706,9.75586296 L6.00470357,9.72978239 C6.32453063,9.412751 6.73983348,9.11942922 7.23880417,8.85726865 L7.46045647,8.74617218 C7.9783199,8.49620513 8.56568161,8.28383474 9.20870943,8.11414166 L9.37739458,8.0694321 L9.44959183,8.05249666 C9.93338086,7.93530344 10.4488827,7.84114241 10.9826025,7.77306195 L11.2261839,7.74461041 C11.7653017,7.68533638 12.3199384,7.65349776 12.8755874,7.64943325 L12.9960286,7.64875584 L13.0786843,7.64807842 C13.63602,7.65282034 14.1511845,7.68059446 14.6515047,7.7324169 L14.8940739,7.75815876 C15.4328543,7.82217472 15.9584773,7.91430349 16.4591348,8.03251285 L16.5296452,8.04910958 L16.6878719,8.08602883 C17.2576903,8.23404455 17.7769033,8.40949569 18.2438238,8.61272094 L18.4701992,8.71467227 C19.0842132,9.00460696 19.584196,9.33484799 19.9600265,9.69862119 L19.9927515,9.7301211 L20.1081321,9.84155628 L20.1388328,9.88457229 C20.5548104,10.3513129 20.7656669,10.8498922 20.7656669,11.3667618 L20.7656669,14.4161566 C20.7660042,14.7253977 20.6452257,15.017026 20.4259349,15.2371867 C20.2066442,15.4566699 19.9161684,15.5779277 19.6078119,15.5779277 L11.9798457,15.5604118 Z M19.4517837,15.0017137 C19.6468149,15.0017137 19.8307014,14.9275834 19.9693538,14.7923671 C20.1086618,14.6577871 20.1847075,14.4796198 20.1847075,14.290317 L20.1847075,11.4259592 C20.1847075,11.0915773 20.0581831,10.7613315 19.8080843,10.4425392 L18.758194,11.4606382 L18.3153586,11.0301732 L19.3740991,10.0028478 C19.0590992,9.74036912 18.6592034,9.49825245 18.1826063,9.28031564 L17.9685637,9.18709596 C17.582107,9.02483643 17.1540218,8.88134811 16.6961084,8.75981254 L16.3824196,9.51479656 L15.8012596,9.28667876 L16.0798755,8.61536975 C15.6753907,8.53074028 15.2555001,8.46360938 14.8280705,8.41429521 L14.5956721,8.39043351 C14.1862705,8.35002771 13.7657244,8.32521155 13.342556,8.31725765 L13.3432115,9.6776924 L12.7161618,9.6776924 L12.7161618,8.31693949 C12.2559539,8.3255297 11.7977126,8.35416374 11.3519271,8.40156897 L11.1182175,8.42797591 C10.6983269,8.47951717 10.2889254,8.5479207 9.89919091,8.63159571 L10.1817402,9.2777704 L9.60549694,9.51638734 L9.28394139,8.78112899 C8.74703211,8.92684441 8.25601251,9.10278464 7.82169945,9.30544996 L7.61224583,9.40725986 C7.23758936,9.5975171 6.91570602,9.80622739 6.65446262,10.0286184 L7.68566932,11.0298551 L7.24217833,11.4600019 L6.22670522,10.474673 C5.99234006,10.7836024 5.87368246,11.1027128 5.87368246,11.4250048 L5.87368246,14.2896807 C5.87368246,14.6822852 6.20277703,15.0013955 6.60758958,15.0013955 L10.5131252,14.9983067 L7.82901789,12.4293087 L8.48171024,11.7628322 L11.9170554,15.0222577 L19.4517837,15.0017137 Z" id="Shape" fill="#000000" fill-rule="nonzero"></path>
    </g>
  </g>
</svg>
