<svg id="mail" viewBox="0 0 23 18" width="23px" height="18px">
  <desc>Mail</desc>

  <g id="Page-1" stroke="none" stroke-width="1" fill="none" fill-rule="evenodd">
    <g id="mail" transform="translate(-1.000000, -4.000000)">
      <path class="icon-color" d="M23.320955,7.49221166 C18.0507384,11.2738355 15.0309785,13.4860078 14.2072757,14.1704121 C13.1871714,15.0180038 11.8816215,15.0590884 10.551032,14.1232076 C9.43919851,13.3411905 6.3591814,11.082445 1.32299608,7.35559574 L1.32299608,6.76937345 C1.32299608,5.82839756 1.42097121,5.48717696 1.60494801,5.14317024 C1.78892482,4.79916352 2.05890331,4.52918504 2.40291003,4.34520823 C2.74691675,4.16123142 3.08813734,4.0632563 4.02911323,4.0632563 L20.6148378,4.0632563 C21.5558137,4.0632563 21.8970343,4.16123142 22.241041,4.34520823 C22.5850478,4.52918504 22.8550262,4.79916352 23.0390031,5.14317024 C23.2229799,5.48717696 23.320955,5.82839756 23.320955,6.76937345 L23.320955,7.49221166 Z M23.320955,9.87441358 L23.320955,18.3371387 C23.320955,19.2781146 23.2229799,19.6193352 23.0390031,19.9633419 C22.8550262,20.3073486 22.5850478,20.5773271 22.241041,20.7613039 C21.8970343,20.9452807 21.5558137,21.0432558 20.6148378,21.0432558 L4.02911323,21.0432558 C3.08813734,21.0432558 2.74691675,20.9452807 2.40291003,20.7613039 C2.05890331,20.5773271 1.78892482,20.3073486 1.60494801,19.9633419 C1.42097121,19.6193352 1.32299608,19.2781146 1.32299608,18.3371387 L1.32299608,9.76224975 C5.69490232,12.9945585 8.39673305,14.9734915 9.4378997,15.7058045 C11.4776028,17.1404461 13.746266,17.0690531 15.4437922,15.6586 C16.1584381,15.0648098 18.7985131,13.1257489 23.320955,9.87441358 Z" fill="#FFFFFF"/>
      <rect id="border" x="0.321975535" y="0.553256067" width="24" height="24"/>
    </g>
  </g>
</svg>
