
<svg width="24px" height="25px" viewBox="0 0 24 25" version="1.1" xmlns="http://www.w3.org/2000/svg" xmlns:xlink="http://www.w3.org/1999/xlink">
  <!-- Generator: Sketch 50.2 (55047) - http://www.bohemiancoding.com/sketch -->
  <desc>Created with Sketch.</desc>
  <defs>

  </defs>
  <g id="Page-1" stroke="none" stroke-width="1" fill="none" fill-rule="evenodd">
    <g id="network-interface-v2" transform="translate(-0.543945, 0.613142)">
      <ellipse id="Oval-10" fill="#FFFFFF"  class="icon-color" cx="3.31455354" cy="21.2054225" rx="2.63775344" ry="2.64374988"></ellipse>
      <ellipse id="Oval-10" fill="#FFFFFF"  class="icon-color" cx="3.31455354" cy="11.880598" rx="2.63775344" ry="2.64374988"></ellipse>
      <rect id="Rectangle-24" fill="#FFFFFF"  class="icon-color" x="2.78700285" y="12.8765777" width="1.05510138" height="9.01899337"></rect>
      <ellipse id="Oval-10" fill="#FFFFFF"  class="icon-color" cx="12.6156151" cy="21.2054225" rx="2.63775344" ry="2.64374988"></ellipse>
      <ellipse id="Oval-10" fill="#FFFFFF"  class="icon-color" cx="12.6156151" cy="11.880598" rx="2.63775344" ry="2.64374988"></ellipse>
      <rect id="Rectangle-24" fill="#FFFFFF"  class="icon-color" x="12.0880644" y="12.8765777" width="1.05510138" height="9.01899337"></rect>
      <rect id="Rectangle-24" fill="#FFFFFF"  class="icon-color" transform="translate(7.736093, 17.010159) rotate(-45.000000) translate(-7.736093, -17.010159) " x="7.23609337" y="10.4951588" width="1" height="13.0299997"></rect>
      <rect id="border" x="0.591064453" y="0.0498046875" width="24" height="24"></rect>
      <mask id="mask-2" fill="white">
        <polygon id="path-1" points="12.0205078 0 24.6682486 0 24.6682486 12.6177264 12.0205078 12.6177264"></polygon>
      </mask>
      <path d="M12.7349589,17.5852968 C9.58712643,17.5852968 7.035304,15.0334743 7.035304,11.8856419 C7.035304,8.73780937 9.58712643,6.18598695 12.7349589,6.18598695 C15.8827914,6.18598695 18.4346138,8.73780937 18.4346138,11.8856419 C18.4346138,15.0334743 15.8827914,17.5852968 12.7349589,17.5852968 Z M12.7349589,15.6612539 C14.8201719,15.6612539 16.5105709,13.9708548 16.5105709,11.8856419 C16.5105709,9.80042891 14.8201719,8.11002982 12.7349589,8.11002982 C10.649746,8.11002982 8.95934688,9.80042891 8.95934688,11.8856419 C8.95934688,13.9708548 10.649746,15.6612539 12.7349589,15.6612539 Z" id="Oval-10" fill="#FFFFFF"  class="icon-color" fill-rule="nonzero" mask="url(#mask-2)"></path>
      <path d="M12.7349589,20.6171138 C7.91270013,20.6171138 4.003487,16.7079006 4.003487,11.8856419 C4.003487,7.06338308 7.91270013,3.15416995 12.7349589,3.15416995 C17.5572177,3.15416995 21.4664308,7.06338308 21.4664308,11.8856419 C21.4664308,16.7079006 17.5572177,20.6171138 12.7349589,20.6171138 Z M12.7349589,18.6930709 C16.4945982,18.6930709 19.5423879,15.6452811 19.5423879,11.8856419 C19.5423879,8.12600261 16.4945982,5.07821282 12.7349589,5.07821282 C8.97531967,5.07821282 5.92752988,8.12600261 5.92752988,11.8856419 C5.92752988,15.6452811 8.97531967,18.6930709 12.7349589,18.6930709 Z" id="Oval-10" fill="#FFFFFF"  class="icon-color" fill-rule="nonzero" mask="url(#mask-2)"></path>
      <path d="M12.7349589,23.6993939 C6.2104038,23.6993939 0.921206826,18.410197 0.921206826,11.8856419 C0.921206826,5.36108674 6.2104038,0.0718897705 12.7349589,0.0718897705 C19.259514,0.0718897705 24.548711,5.36108674 24.548711,11.8856419 C24.548711,18.410197 19.259514,23.6993939 12.7349589,23.6993939 Z M12.7349589,21.7753511 C18.1968945,21.7753511 22.6246681,17.3475774 22.6246681,11.8856419 C22.6246681,6.42370628 18.1968945,1.99593264 12.7349589,1.99593264 C7.27302333,1.99593264 2.8452497,6.42370628 2.8452497,11.8856419 C2.8452497,17.3475774 7.27302333,21.7753511 12.7349589,21.7753511 Z" id="Oval-10" fill="#FFFFFF"  class="icon-color" fill-rule="nonzero" mask="url(#mask-2)"></path>
    </g>
  </g>
</svg>
