<svg id="power" width="21px" height="23px" viewBox="0 0 21 23" version="1.1" xmlns="http://www.w3.org/2000/svg">
  <desc>Power</desc>
  <defs></defs>
  <g id="Page-1" stroke="none" stroke-width="1" fill="none" fill-rule="evenodd">
    <g id="power" transform="translate(-2.000000, -1.000000)">
      <g class="icon-color" transform="translate(2.351157, 1.500000)">
        <path d="M14.019984,4.13134059 C14.7625865,3.36783084 15.592126,3.3356761 16.4666556,4.13134059 C17.3411852,4.92700508 20.1574379,7.44949837 20.1574379,12.133108 C20.1574379,14.6450625 18.9523802,17.218797 16.9563869,19.0863396 C15.2307947,20.7008826 12.9409773,21.7932926 10.0035522,21.7932926 C7.50141906,21.7932926 5.59976284,20.9127894 4.05717425,19.6837827 C1.69408584,17.8010697 0.354438533,14.9325765 0.404236636,11.8447739 C0.486542193,6.74130007 3.80734645,4.37971282 4.41894819,3.94701319 C5.03054993,3.51431356 5.78162122,3.42195138 6.37866731,4.13134059 C6.97571341,4.8407298 6.96698002,5.33919448 6.37866731,5.9259193 C5.7903546,6.51264412 3.57379451,8.52648378 3.57379451,11.8447739 C3.57379451,13.3159613 4.01673446,14.9113761 5.02909437,16.1306174 C6.30013074,17.6613972 8.34914064,18.6515228 10.1897983,18.6515228 C12.1587324,18.6515228 14.163912,17.6739535 15.5333741,16.1306174 C16.463845,15.0820092 17.1469335,13.7267615 17.1469335,12.4158845 C17.1469335,9.17566555 14.7760791,6.76239641 14.1422469,6.21259 C13.5084148,5.66278359 13.2773815,4.89485033 14.019984,4.13134059 Z" id="Path-8"></path>
        <rect id="Rectangle-10" x="8.5478554" y="0" width="3.37069042" height="11.7346803" rx="1.68534521"></rect>
      </g>
      <rect id="border" x="0.434490246" y="0.5" width="24" height="24"></rect>
    </g>
  </g>
</svg>
