<svg id="refresh" viewBox="0 0 25 25" width="25px" height="25px">
  <desc>Refresh.</desc>

  <g id="Page-1" stroke="none" stroke-width="1" fill="none" fill-rule="evenodd">
    <g id="reboot">
      <path d="M20.8590448,4.11387158 C18.7007295,2.03144033 15.7638954,0.750549316 12.5278931,0.750549316 C5.90047607,0.750549316 0.527893066,6.12313232 0.527893066,12.7505493 C0.527893066,19.3779663 5.90047607,24.7505493 12.5278931,24.7505493 C16.2336445,24.7505493 19.5470671,23.0707898 21.7482879,20.4311437 L19.004305,17.3615287 C17.5629303,19.3823987 15.1992927,20.7000842 12.5278931,20.7000842 C8.13748616,20.7000842 4.57835814,17.1409562 4.57835814,12.7505493 C4.57835814,8.36014241 8.13748616,4.80101439 12.5278931,4.80101439 C14.6453646,4.80101439 16.5694736,5.62889789 17.9941937,6.97863857 C16.8948584,8.07720691 16.0085181,8.96104551 15.8333425,9.12890751 C15.3294449,9.61176711 15.47149,10.5306574 16.3069225,10.5306574 C17.142355,10.5306574 23.0964173,10.5306574 23.5173319,10.5306574 C23.9382465,10.5306574 24.3643036,10.5127362 24.3643036,9.93427089 C24.3643036,9.35580555 24.3643036,3.00382919 24.3643036,2.35048438 C24.3643036,1.69713958 23.5568365,1.43697043 23.1412203,1.83793792 C22.9888059,1.98498046 22.0331577,2.93975203 20.8590448,4.11387158 Z" class="icon-color"/>
      <rect id="border" x="0.527893066" y="0.750549316" width="24" height="24"/>
    </g>
  </g>
</svg>
