<svg id="reboot" viewBox="0 0 22 22" width="22px" height="22px">
  <desc>Reboot.</desc>

  <g id="Page-1" stroke="none" stroke-width="1" fill="none" fill-rule="evenodd">
    <g id="reboot-2" transform="translate(11.435156, 11.342285) scale(1, -1) translate(-11.435156, -11.342285) translate(-1.064844, -1.157715)">
      <polygon id="Shape" points="0.222174125 0.788043992 24.2221741 0.788043992 24.2221741 24.788044 0.222174125 24.788044"/>
      <g class="icon-color" id="icon" transform="translate(1.222174, 1.788044)" fill="#FFFFFF">
        <path d="M3.28760065,17.9989246 L5.91474759,15.6082411 C6.37808778,16.0953892 6.91116465,16.5155879 7.49797541,16.8528346 L5.83232288,19.9917452 C4.8836805,19.4604685 4.02575216,18.7865073 3.28760065,17.9989246 Z M2.77355752,17.4080836 C1.31664956,15.6026814 0.444348251,13.3058476 0.444348251,10.8052769 C0.444348251,4.99428081 5.15509132,0.28353774 10.9660874,0.28353774 C15.7911688,0.28353774 19.8576715,3.5313996 21.098653,7.96018102 L17.2602107,7.80678618 C16.1392312,5.45795435 13.7421862,3.83503248 10.9660874,3.83503248 C7.1165277,3.83503248 3.99584299,6.95571719 3.99584299,10.8052769 C3.99584299,12.4433039 4.56087088,13.9493615 5.50665583,15.139179 L2.77355752,17.4080836 Z M6.88736966,20.5072617 L8.33546108,17.2620369 C8.88305103,17.485365 9.46541604,17.6410572 10.0721777,17.718735 L9.87036438,21.2706497 C8.82275737,21.1622502 7.82077941,20.9001412 6.88736966,20.5072617 Z M11.8239243,21.2925502 C12.6619287,21.2249328 13.4722024,21.0591232 14.2432281,20.8066385 L13.0020677,17.4734735 C12.5592584,17.608505 12.097742,17.7006382 11.6223607,17.7450312 L11.8239243,21.2925502 Z M16.2050613,19.9320255 L14.5586596,16.7795788 C14.9425702,16.5482226 15.302363,16.2809076 15.633375,15.982297 L18.1513877,18.4915786 C17.5620076,19.0427727 16.9091846,19.5269691 16.2050613,19.9320255 Z M19.6672483,16.7229088 L16.8290566,14.5764397 C16.9867584,14.331769 17.1295624,14.0765901 17.2561862,13.8121856 L20.5483973,15.1573481 C20.2987982,15.7060329 20.0034582,16.2295101 19.6672483,16.7229088 Z M21.3042883,12.7722275 L17.8469374,11.9245819 C17.8747818,11.7520832 17.8962958,11.577465 17.9112335,11.4009733 L21.4692927,11.4350077 C21.4424886,11.8890928 21.386887,12.3354329 21.3042883,12.7722275 Z" id="Combined-Shape"/>
        <path d="M21.3443894,1.68637936 C21.3443894,2.25923966 21.3443894,7.82872618 21.3443894,8.33593129 C21.3443894,8.8431364 20.9708175,8.85884993 20.6017548,8.85884993 C20.232692,8.85884993 15.0121011,8.85884993 14.2795842,8.85884993 C13.5470673,8.85884993 13.4225205,8.05315624 13.8643437,7.62977935 C14.306167,7.20640245 19.9075588,1.58854561 20.2719758,1.23697267 C20.6363928,0.885399733 21.3443894,1.11351906 21.3443894,1.68637936 Z" id="Path-3"/>
      </g>
    </g>
  </g>
</svg>
