<svg id="ssh" viewBox="0 0 23 22" width="23px" height="22px">
  <desc>SSH Toggle.</desc>

  <g id="Page-1" stroke="none" stroke-width="1" fill="none" fill-rule="evenodd">
    <g id="open-close-ssh" transform="translate(-1.174715, -1.000000)">
      <rect id="border" x="0.74386139" y="0" width="24" height="24"/>
      <g class="icon-color" id="icon" transform="translate(1.743861, 1.000000)">
        <path d="M6.32207846,0.125110853 L15.5300887,0.125110853 L15.5300887,0.125110853 C18.9287641,0.125110853 21.6839349,2.88028162 21.6839349,6.27895701 L21.6839349,15.4869673 C21.6839349,18.8856427 18.9287641,21.6408134 15.5300887,21.6408134 L6.32207846,21.6408134 C2.92340308,21.6408134 0.168232308,18.8856427 0.168232308,15.4869673 L0.168232308,6.27895701 L0.168232308,6.27895701 C0.168232308,2.88028162 2.92340308,0.125110853 6.32207846,0.125110853 L6.32207846,0.125110853 Z M6.11373137,2.37830223 L6.11373137,2.37830223 C4.07452614,2.37830223 2.42142368,4.03140469 2.42142368,6.07060992 L2.42142368,6.07060992 L2.42142368,15.6953144 C2.42142368,17.7345196 4.07452614,19.3876221 6.11373137,19.3876221 L15.7384358,19.3876221 C17.7776411,19.3876221 19.4307435,17.7345196 19.4307435,15.6953144 L19.4307435,15.6953144 L19.4307435,6.07060992 C19.4307435,4.03140469 17.7776411,2.37830223 15.7384358,2.37830223 L15.7384358,2.37830223 L6.11373137,2.37830223 Z" id="Combined-Shape"/>
        <rect id="Rectangle-3" x="10.9260836" y="14.2959796" width="6.75444626" height="1.12820513"/>
        <rect id="Rectangle-2" transform="translate(8.056436, 9.272785) rotate(-315.000000) translate(-8.056436, -9.272785) " x="5.08688151" y="8.44211449" width="5.93910844" height="1.66134135" rx="0.830670675"/>
        <rect id="Rectangle-2" transform="translate(8.056436, 12.312631) scale(1, -1) rotate(-315.000000) translate(-8.056436, -12.312631) " x="5.08688151" y="11.4819607" width="5.93910844" height="1.66134135" rx="0.830670675"/>
      </g>
    </g>
  </g>
</svg>
