<svg id="datalogger-params" viewBox="0 0 22 20" width="22px" height="20px">
  <desc>Created with Sketch.</desc>

  <g id="Page-1" stroke="none" stroke-width="1" fill="none" fill-rule="evenodd">
    <g id="set-params" transform="translate(-1.000000, -2.000000)">
      <g class="icon-color" transform="translate(1.000000, 2.375000)" fill="#FFFFFF">
        <path d="M7.35169713,0.131123896 L7.35169713,1.85128398 C7.11200798,1.85128398 6.75286935,1.85128398 6.27428123,1.85128398 C5.55639905,1.85128398 5.1375225,2.17604111 5.14368594,3.07147764 C5.14984937,3.96691417 5.14984937,6.51667995 5.14984937,7.39876237 C5.14984937,8.28084479 3.74142538,9.54782584 2.60932874,9.5154283 C3.78986366,9.59942486 5.08940029,10.5528609 5.14368594,11.7778042 C5.19797158,13.0027474 5.1770317,14.2469712 5.19797158,15.0683675 C5.21906949,16.4453421 5.84916223,17.1714422 7.35169713,17.1714422 C7.35169713,17.6842716 7.35169713,18.2603685 7.35169713,18.8997327 C7.06117281,18.8997327 6.59817766,18.8997327 5.96271167,18.8997327 C5.00951269,18.8997327 3.04424602,18.0430942 3.04424602,15.78783 C3.04424602,13.5325658 3.04424602,12.9189089 3.04424602,12.2685875 C3.04424602,11.618266 2.84614689,10.6555058 1.69350546,10.6408084 C0.925077846,10.6310101 0.425075739,10.6359092 0.193499143,10.6555058 L0.193499143,8.42995251 C0.482337741,8.42995251 0.982339847,8.42995251 1.69350546,8.42995251 C2.76025389,8.42995251 3.04424602,7.76177291 3.04424602,7.13144312 C3.04424602,6.50111333 3.05167375,4.18966704 3.05167375,2.84532698 C3.05167375,1.50098691 4.03853457,0.131123896 5.96271167,0.131123896 C6.68335949,0.131123896 7.14635465,0.131123896 7.35169713,0.131123896 Z" id="{.}"/>
        <path d="M21.7637897,0.131123896 L21.7637897,1.85128398 C21.5241006,1.85128398 21.164962,1.85128398 20.6863738,1.85128398 C19.9684917,1.85128398 19.5496151,2.17604111 19.5557785,3.07147764 C19.561942,3.96691417 19.561942,6.51667995 19.561942,7.39876237 C19.561942,8.28084479 18.153518,9.54782584 17.0214214,9.5154283 C18.2019563,9.59942486 19.5014929,10.5528609 19.5557785,11.7778042 C19.6100642,13.0027474 19.5891243,14.2469712 19.6100642,15.0683675 C19.6311621,16.4453421 20.2612548,17.1714422 21.7637897,17.1714422 C21.7637897,17.6842716 21.7637897,18.2603685 21.7637897,18.8997327 C21.4732654,18.8997327 21.0102703,18.8997327 20.3748043,18.8997327 C19.4216053,18.8997327 17.4563386,18.0430942 17.4563386,15.78783 C17.4563386,13.5325658 17.4563386,12.9189089 17.4563386,12.2685875 C17.4563386,11.618266 17.2582395,10.6555058 16.1055981,10.6408084 C15.3371705,10.6310101 14.8371684,10.6359092 14.6055918,10.6555058 L14.6055918,8.42995251 C14.8944304,8.42995251 15.3944325,8.42995251 16.1055981,8.42995251 C17.1723465,8.42995251 17.4563386,7.76177291 17.4563386,7.13144312 C17.4563386,6.50111333 17.4637664,4.18966704 17.4637664,2.84532698 C17.4637664,1.50098691 18.4506272,0.131123896 20.3748043,0.131123896 C21.0954521,0.131123896 21.5584473,0.131123896 21.7637897,0.131123896 Z" id="{.}" transform="translate(18.184691, 9.515428) scale(-1, 1) translate(-18.184691, -9.515428) "/>
        <circle id="Oval-4" cx="11" cy="14.3" r="1.65"/>
      </g>
      <rect id="border" x="0" y="0" width="24" height="24"/>
    </g>
  </g>
</svg>
