<svg id="unshare" viewBox="0 0 19 21" width="19px" height="21px">
  <desc>Unshare.</desc>

  <g id="Page-1" stroke="none" stroke-width="1" fill="none" fill-rule="evenodd">
    <g id="unshare-device" transform="translate(-3.000000, -2.000000)">
      <polygon id="Shape" points="0 0.842285156 24 0.842285156 24 24.8422852 0 24.8422852"/>
      <path class="icon-color" d="M11.3108653,16.9433525 L8.04,15.0322852 C7.5,15.5322852 6.79,15.8422852 6,15.8422852 C4.34,15.8422852 3,14.5022852 3,12.8422852 C3,11.1822852 4.34,9.84228516 6,9.84228516 C6.79,9.84228516 7.5,10.1522852 8.04,10.6522852 L15.09,6.54228516 C15.04,6.31228516 15,6.08228516 15,5.84228516 C15,4.18228516 16.34,2.84228516 18,2.84228516 C19.66,2.84228516 21,4.18228516 21,5.84228516 C21,7.50228516 19.66,8.84228516 18,8.84228516 C17.21,8.84228516 16.5,8.53228516 15.96,8.03228516 L8.91,12.1422852 C8.96,12.3722852 9,12.6022852 9,12.8422852 C9,13.0822852 8.96,13.3122852 8.91,13.5422852 L12.184911,15.4484395 C11.8371939,15.9071943 11.5427722,16.4085718 11.3108653,16.9433525 Z" id="Combined-Shape" fill-rule="nonzero"/>
      <path class="icon-color" d="M19.2121465,18.8135625 L21.9207435,16.1049656 L20.6806177,14.8648398 L17.9720208,17.5734367 L15.2634239,14.8648398 L14.0232981,16.1049656 L16.7318951,18.8135625 L14.0232981,21.5221594 L15.2634239,22.7622852 L17.9720208,20.0536882 L20.6806177,22.7622852 L21.9207435,21.5221594 L19.2121465,18.8135625 Z" id="Combined-Shape"/>
    </g>
  </g>
</svg>
