<svg id="wifi" viewBox="0 0 22 16" width="22px" height="16px">
  <desc>wifi.</desc>

  <g id="Page-1" stroke="none" stroke-width="1" fill="none" fill-rule="evenodd">
    <g id="setup-wifi" transform="translate(-1.000000, -4.000000)">
      <g transform="translate(1.001818, 4.110000)" id="Oval-3" fill-rule="nonzero" class="icon-color">
        <path class="bar-3" d="M18.872766,7.60976739 C16.673869,5.61568614 13.9544216,4.5063144 11.0830977,4.5063144 C9.74048628,4.5063144 8.42491187,4.74864932 7.17344671,5.21836168 C5.71525385,5.76566514 4.36287347,6.61483518 3.17655753,7.71704749 L5.12943594,9.81893909 C6.04661512,8.96678314 7.0798214,8.31802497 8.18162875,7.90448367 C9.11309486,7.55487654 10.0873986,7.37540527 11.0830977,7.37540527 C13.2215097,7.37540527 15.2606488,8.20725198 16.9454095,9.7350861 L18.872766,7.60976739 Z"/>
        <path class="bar-2" d="M16.0542972,10.5404509 C14.5844631,9.26907402 12.8859191,8.57406389 11.1003456,8.57406389 C9.31036533,8.57406389 7.60794779,9.27249109 6.13572241,10.5496953 L8.01584965,12.7169064 C8.98862228,11.872994 10.0363561,11.4431548 11.1003456,11.4431548 C12.1615982,11.4431548 13.2066242,11.8707584 14.1773332,12.7104021 L16.0542972,10.5404509 Z"/>
        <path class="bar-1" d="M13.343399,13.406692 C12.4298534,12.6818759 12.0182693,12.561209 11.1003456,12.561209 C10.182422,12.561209 9.4598242,12.9623479 8.95304918,13.406692 L10.7677109,15.4838841 C10.896239,15.5988111 10.9715096,15.6458827 11.0686238,15.6471015 C11.165738,15.6483203 11.2657104,15.5910762 11.3829686,15.4838841 L13.343399,13.406692 Z"/>
        <path class="bar-4" d="M21.7117563,4.84987836 C18.9561213,2.00467408 15.1578557,0.3659088 11.1003456,0.3659088 C8.36267184,0.3659088 5.73161656,1.10987903 3.4438194,2.49497497 C3.09114008,2.70849682 2.74769101,2.93665884 2.41438251,3.17878771 C1.69472422,3.70157681 1.02402507,4.28825519 0.410970568,4.93099501 L2.48710125,6.91123837 C2.98076646,6.39366891 3.52097907,5.92113057 4.10063716,5.50004333 C4.36909786,5.30502254 4.64571204,5.12126065 4.92973801,4.94930344 C6.77221081,3.83381924 8.88993991,3.23499966 11.1003456,3.23499966 C14.3740472,3.23499966 17.430946,4.55390152 19.6508221,6.84593265 L21.7117563,4.84987836 Z"/>
      </g>
      <rect id="border" x="0" y="0" width="24" height="24"/>
    </g>
  </g>
</svg>
