<?xml version="1.0" encoding="UTF-8" standalone="no"?>
<!DOCTYPE svg PUBLIC "-//W3C//DTD SVG 1.1//EN"
 "http://www.w3.org/Graphics/SVG/1.1/DTD/svg11.dtd">
<!-- Generated by graphviz version 2.40.1 (20161225.0304)
 -->
<!-- Title: dependencies Pages: 1 -->
<svg width="504pt" height="284pt"
 viewBox="0.00 0.00 504.00 284.00" xmlns="http://www.w3.org/2000/svg" xmlns:xlink="http://www.w3.org/1999/xlink">
<g id="graph0" class="graph" transform="scale(1 1) rotate(0) translate(4 280)">
<title>dependencies</title>
<polygon fill="#ffffff" stroke="transparent" points="-4,4 -4,-280 500,-280 500,4 -4,4"/>
<text text-anchor="start" x="227.0091" y="-42.4" font-family="sans-serif" font-weight="bold" font-size="14.00" fill="#000000">Legend</text>
<polygon fill="#ffffb3" stroke="transparent" points="14,-10 14,-30 34,-30 34,-10 14,-10"/>
<text text-anchor="start" x="37.629" y="-15.4" font-family="sans-serif" font-size="14.00" fill="#000000"> &#160;Declarations</text>
<polygon fill="#8dd3c7" stroke="transparent" points="127,-10 127,-30 147,-30 147,-10 127,-10"/>
<text text-anchor="start" x="150.7251" y="-15.4" font-family="sans-serif" font-size="14.00" fill="#000000"> &#160;Module</text>
<polygon fill="#80b1d3" stroke="transparent" points="213,-10 213,-30 233,-30 233,-10 213,-10"/>
<text text-anchor="start" x="236.7812" y="-15.4" font-family="sans-serif" font-size="14.00" fill="#000000"> &#160;Bootstrap</text>
<polygon fill="#fdb462" stroke="transparent" points="310,-10 310,-30 330,-30 330,-10 310,-10"/>
<text text-anchor="start" x="333.6732" y="-15.4" font-family="sans-serif" font-size="14.00" fill="#000000"> &#160;Providers</text>
<polygon fill="#fb8072" stroke="transparent" points="406,-10 406,-30 426,-30 426,-10 406,-10"/>
<text text-anchor="start" x="429.7258" y="-15.4" font-family="sans-serif" font-size="14.00" fill="#000000"> &#160;Exports</text>
<g id="clust7" class="cluster">
<title>cluster_IxOnRenderCompleteModule</title>
<polygon fill="none" stroke="#000000" stroke-dasharray="1,5" points="13,-70 13,-268 253,-268 253,-70 13,-70"/>
</g>
<g id="clust8" class="cluster">
<title>cluster_IxOnRenderCompleteModule_declarations</title>
<polygon fill="none" stroke="#000000" points="23,-78 23,-130 243,-130 243,-78 23,-78"/>
</g>
<g id="clust11" class="cluster">
<title>cluster_IxOnRenderCompleteModule_exports</title>
<polygon fill="none" stroke="#000000" points="21,-208 21,-260 245,-260 245,-208 21,-208"/>
</g>
<g id="clust14" class="cluster">
<title>cluster_IxWindowRefModule</title>
<polygon fill="none" stroke="#000000" stroke-dasharray="1,5" points="261,-70 261,-195 483,-195 483,-70 261,-70"/>
</g>
<g id="clust19" class="cluster">
<title>cluster_IxWindowRefModule_providers</title>
<polygon fill="none" stroke="#000000" points="269,-78 269,-130 475,-130 475,-78 269,-78"/>
</g>
<!-- IxOnRenderCompleteComponent -->
<g id="node1" class="node">
<title>IxOnRenderCompleteComponent</title>
<polygon fill="#ffffb3" stroke="#000000" points="235.4636,-122 30.5364,-122 30.5364,-86 235.4636,-86 235.4636,-122"/>
<text text-anchor="middle" x="133" y="-99.8" font-family="Times,serif" font-size="14.00" fill="#000000">IxOnRenderCompleteComponent</text>
</g>
<!-- IxOnRenderCompleteModule -->
<g id="node2" class="node">
<title>IxOnRenderCompleteModule</title>
<polygon fill="#8dd3c7" stroke="#000000" points="224.6811,-187 221.6811,-191 200.6811,-191 197.6811,-187 41.3189,-187 41.3189,-151 224.6811,-151 224.6811,-187"/>
<text text-anchor="middle" x="133" y="-164.8" font-family="Times,serif" font-size="14.00" fill="#000000">IxOnRenderCompleteModule</text>
</g>
<!-- IxOnRenderCompleteComponent&#45;&gt;IxOnRenderCompleteModule -->
<g id="edge1" class="edge">
<title>IxOnRenderCompleteComponent&#45;&gt;IxOnRenderCompleteModule</title>
<path fill="none" stroke="#000000" d="M133,-122.1061C133,-122.1061 133,-140.991 133,-140.991"/>
<polygon fill="#000000" stroke="#000000" points="129.5001,-140.9909 133,-150.991 136.5001,-140.991 129.5001,-140.9909"/>
</g>
<!-- IxOnRenderCompleteComponent  -->
<g id="node3" class="node">
<title>IxOnRenderCompleteComponent </title>
<polygon fill="#fb8072" stroke="#000000" points="237.4641,-252 28.5359,-252 28.5359,-216 237.4641,-216 237.4641,-252"/>
<text text-anchor="middle" x="133" y="-229.8" font-family="Times,serif" font-size="14.00" fill="#000000">IxOnRenderCompleteComponent </text>
</g>
<!-- IxOnRenderCompleteModule&#45;&gt;IxOnRenderCompleteComponent  -->
<g id="edge2" class="edge">
<title>IxOnRenderCompleteModule&#45;&gt;IxOnRenderCompleteComponent </title>
<path fill="none" stroke="#000000" stroke-dasharray="5,2" d="M133,-187.1061C133,-187.1061 133,-205.991 133,-205.991"/>
<polygon fill="#000000" stroke="#000000" points="129.5001,-205.9909 133,-215.991 136.5001,-205.991 129.5001,-205.9909"/>
</g>
<!-- IxWindowRefService -->
<g id="node4" class="node">
<title>IxWindowRefService</title>
<ellipse fill="#fdb462" stroke="#000000" cx="372" cy="-104" rx="95.4656" ry="18"/>
<text text-anchor="middle" x="372" y="-99.8" font-family="Times,serif" font-size="14.00" fill="#000000">IxWindowRefService</text>
</g>
<!-- IxWindowRefModule -->
<g id="node5" class="node">
<title>IxWindowRefModule</title>
<polygon fill="#8dd3c7" stroke="#000000" points="441.6345,-187 438.6345,-191 417.6345,-191 414.6345,-187 302.3655,-187 302.3655,-151 441.6345,-151 441.6345,-187"/>
<text text-anchor="middle" x="372" y="-164.8" font-family="Times,serif" font-size="14.00" fill="#000000">IxWindowRefModule</text>
</g>
<!-- IxWindowRefService&#45;&gt;IxWindowRefModule -->
<g id="edge3" class="edge">
<title>IxWindowRefService&#45;&gt;IxWindowRefModule</title>
<path fill="none" stroke="#000000" d="M372,-122.1061C372,-122.1061 372,-140.991 372,-140.991"/>
<polygon fill="#000000" stroke="#000000" points="368.5001,-140.9909 372,-150.991 375.5001,-140.991 368.5001,-140.9909"/>
</g>
</g>
</svg>
