<?xml version="1.0" encoding="UTF-8" standalone="no"?>
<!DOCTYPE svg PUBLIC "-//W3C//DTD SVG 1.1//EN"
 "http://www.w3.org/Graphics/SVG/1.1/DTD/svg11.dtd">
<!-- Generated by graphviz version 2.40.1 (20161225.0304)
 -->
<!-- Title: dependencies Pages: 1 -->
<svg width="696pt" height="355pt"
 viewBox="0.00 0.00 696.00 355.00" xmlns="http://www.w3.org/2000/svg" xmlns:xlink="http://www.w3.org/1999/xlink">
<g id="graph0" class="graph" transform="scale(1 1) rotate(0) translate(4 351)">
<title>dependencies</title>
<polygon fill="#ffffff" stroke="transparent" points="-4,4 -4,-351 692,-351 692,4 -4,4"/>
<text text-anchor="start" x="323.0091" y="-42.4" font-family="sans-serif" font-weight="bold" font-size="14.00" fill="#000000">Legend</text>
<polygon fill="#ffffb3" stroke="transparent" points="110,-10 110,-30 130,-30 130,-10 110,-10"/>
<text text-anchor="start" x="133.629" y="-15.4" font-family="sans-serif" font-size="14.00" fill="#000000"> &#160;Declarations</text>
<polygon fill="#8dd3c7" stroke="transparent" points="223,-10 223,-30 243,-30 243,-10 223,-10"/>
<text text-anchor="start" x="246.7251" y="-15.4" font-family="sans-serif" font-size="14.00" fill="#000000"> &#160;Module</text>
<polygon fill="#80b1d3" stroke="transparent" points="309,-10 309,-30 329,-30 329,-10 309,-10"/>
<text text-anchor="start" x="332.7812" y="-15.4" font-family="sans-serif" font-size="14.00" fill="#000000"> &#160;Bootstrap</text>
<polygon fill="#fdb462" stroke="transparent" points="406,-10 406,-30 426,-30 426,-10 406,-10"/>
<text text-anchor="start" x="429.6732" y="-15.4" font-family="sans-serif" font-size="14.00" fill="#000000"> &#160;Providers</text>
<polygon fill="#fb8072" stroke="transparent" points="502,-10 502,-30 522,-30 522,-10 502,-10"/>
<text text-anchor="start" x="525.7258" y="-15.4" font-family="sans-serif" font-size="14.00" fill="#000000"> &#160;Exports</text>
<g id="clust1" class="cluster">
<title>cluster__IxMenuDirectivesModule</title>
<polygon fill="none" stroke="#000000" stroke-dasharray="1,5" points="8,-70 8,-271 272,-271 272,-70 8,-70"/>
</g>
<g id="clust2" class="cluster">
<title>cluster__IxMenuDirectivesModule_declarations</title>
<polygon fill="none" stroke="#000000" points="20,-78 20,-130 260,-130 260,-78 20,-78"/>
</g>
<g id="clust6" class="cluster">
<title>cluster__IxMenuDirectivesModule_exports</title>
<polygon fill="none" stroke="#000000" points="16,-211 16,-263 264,-263 264,-211 16,-211"/>
</g>
<g id="clust9" class="cluster">
<title>cluster_IxMenuModule</title>
<polygon fill="none" stroke="#000000" stroke-dasharray="1,5" points="280,-138 280,-339 680,-339 680,-138 280,-138"/>
</g>
<g id="clust10" class="cluster">
<title>cluster_IxMenuModule_declarations</title>
<polygon fill="none" stroke="#000000" points="314,-146 314,-198 502,-198 502,-146 314,-146"/>
</g>
<g id="clust14" class="cluster">
<title>cluster_IxMenuModule_exports</title>
<polygon fill="none" stroke="#000000" points="288,-279 288,-331 672,-331 672,-279 288,-279"/>
</g>
<!-- IxMenuContent -->
<g id="node1" class="node">
<title>IxMenuContent</title>
<polygon fill="#ffffb3" stroke="#000000" points="252.1528,-122 147.8472,-122 147.8472,-86 252.1528,-86 252.1528,-122"/>
<text text-anchor="middle" x="200" y="-99.8" font-family="Times,serif" font-size="14.00" fill="#000000">IxMenuContent</text>
</g>
<!-- _IxMenuDirectivesModule -->
<g id="node3" class="node">
<title>_IxMenuDirectivesModule</title>
<polygon fill="#8dd3c7" stroke="#000000" points="264.3975,-190 261.3975,-194 240.3975,-194 237.3975,-190 95.6025,-190 95.6025,-154 264.3975,-154 264.3975,-190"/>
<text text-anchor="middle" x="180" y="-167.8" font-family="Times,serif" font-size="14.00" fill="#000000">_IxMenuDirectivesModule</text>
</g>
<!-- IxMenuContent&#45;&gt;_IxMenuDirectivesModule -->
<g id="edge1" class="edge">
<title>IxMenuContent&#45;&gt;_IxMenuDirectivesModule</title>
<path fill="none" stroke="#000000" d="M200,-122.2228C200,-122.2228 200,-143.7269 200,-143.7269"/>
<polygon fill="#000000" stroke="#000000" points="196.5001,-143.7269 200,-153.7269 203.5001,-143.727 196.5001,-143.7269"/>
</g>
<!-- IxMenuTrigger -->
<g id="node2" class="node">
<title>IxMenuTrigger</title>
<polygon fill="#ffffb3" stroke="#000000" points="130.2992,-122 27.7008,-122 27.7008,-86 130.2992,-86 130.2992,-122"/>
<text text-anchor="middle" x="79" y="-99.8" font-family="Times,serif" font-size="14.00" fill="#000000">IxMenuTrigger</text>
</g>
<!-- IxMenuTrigger&#45;&gt;_IxMenuDirectivesModule -->
<g id="edge2" class="edge">
<title>IxMenuTrigger&#45;&gt;_IxMenuDirectivesModule</title>
<path fill="none" stroke="#000000" d="M112.9755,-122.2228C112.9755,-122.2228 112.9755,-143.7269 112.9755,-143.7269"/>
<polygon fill="#000000" stroke="#000000" points="109.4755,-143.7269 112.9755,-153.7269 116.4755,-143.727 109.4755,-143.7269"/>
</g>
<!-- IxMenuContent  -->
<g id="node4" class="node">
<title>IxMenuContent </title>
<polygon fill="#fb8072" stroke="#000000" points="256.1523,-255 147.8477,-255 147.8477,-219 256.1523,-219 256.1523,-255"/>
<text text-anchor="middle" x="202" y="-232.8" font-family="Times,serif" font-size="14.00" fill="#000000">IxMenuContent </text>
</g>
<!-- _IxMenuDirectivesModule&#45;&gt;IxMenuContent  -->
<g id="edge3" class="edge">
<title>_IxMenuDirectivesModule&#45;&gt;IxMenuContent </title>
<path fill="none" stroke="#000000" stroke-dasharray="5,2" d="M202,-190.1061C202,-190.1061 202,-208.991 202,-208.991"/>
<polygon fill="#000000" stroke="#000000" points="198.5001,-208.9909 202,-218.991 205.5001,-208.991 198.5001,-208.9909"/>
</g>
<!-- IxMenuTrigger  -->
<g id="node5" class="node">
<title>IxMenuTrigger </title>
<polygon fill="#fb8072" stroke="#000000" points="129.799,-255 24.201,-255 24.201,-219 129.799,-219 129.799,-255"/>
<text text-anchor="middle" x="77" y="-232.8" font-family="Times,serif" font-size="14.00" fill="#000000">IxMenuTrigger </text>
</g>
<!-- _IxMenuDirectivesModule&#45;&gt;IxMenuTrigger  -->
<g id="edge4" class="edge">
<title>_IxMenuDirectivesModule&#45;&gt;IxMenuTrigger </title>
<path fill="none" stroke="#000000" stroke-dasharray="5,2" d="M112.8505,-190.1061C112.8505,-190.1061 112.8505,-208.991 112.8505,-208.991"/>
<polygon fill="#000000" stroke="#000000" points="109.3505,-208.9909 112.8505,-218.991 116.3505,-208.991 109.3505,-208.9909"/>
</g>
<!-- IxMenuModule -->
<g id="node8" class="node">
<title>IxMenuModule</title>
<polygon fill="#8dd3c7" stroke="#000000" points="467.8697,-255 464.8697,-259 443.8697,-259 440.8697,-255 364.1303,-255 364.1303,-219 467.8697,-219 467.8697,-255"/>
<text text-anchor="middle" x="416" y="-232.8" font-family="Times,serif" font-size="14.00" fill="#000000">IxMenuModule</text>
</g>
<!-- _IxMenuDirectivesModule&#45;&gt;IxMenuModule -->
<g id="edge7" class="edge">
<title>_IxMenuDirectivesModule&#45;&gt;IxMenuModule</title>
<path fill="none" stroke="#000000" d="M260.1373,-190.1061C260.1373,-209.3391 260.1373,-237 260.1373,-237 260.1373,-237 354.1,-237 354.1,-237"/>
<polygon fill="#000000" stroke="#000000" points="354.1,-240.5001 364.1,-237 354.0999,-233.5001 354.1,-240.5001"/>
</g>
<!-- IxMenuItem -->
<g id="node6" class="node">
<title>IxMenuItem</title>
<polygon fill="#ffffb3" stroke="#000000" points="493.9762,-190 408.0238,-190 408.0238,-154 493.9762,-154 493.9762,-190"/>
<text text-anchor="middle" x="451" y="-167.8" font-family="Times,serif" font-size="14.00" fill="#000000">IxMenuItem</text>
</g>
<!-- IxMenuItem&#45;&gt;IxMenuModule -->
<g id="edge5" class="edge">
<title>IxMenuItem&#45;&gt;IxMenuModule</title>
<path fill="none" stroke="#000000" d="M437.9734,-190.1061C437.9734,-190.1061 437.9734,-208.991 437.9734,-208.991"/>
<polygon fill="#000000" stroke="#000000" points="434.4734,-208.9909 437.9734,-218.991 441.4734,-208.991 434.4734,-208.9909"/>
</g>
<!-- _IxMenu -->
<g id="node7" class="node">
<title>_IxMenu</title>
<polygon fill="#ffffb3" stroke="#000000" points="389.8206,-190 322.1794,-190 322.1794,-154 389.8206,-154 389.8206,-190"/>
<text text-anchor="middle" x="356" y="-167.8" font-family="Times,serif" font-size="14.00" fill="#000000">_IxMenu</text>
</g>
<!-- _IxMenu&#45;&gt;IxMenuModule -->
<g id="edge6" class="edge">
<title>_IxMenu&#45;&gt;IxMenuModule</title>
<path fill="none" stroke="#000000" d="M376.8626,-190.1061C376.8626,-190.1061 376.8626,-208.991 376.8626,-208.991"/>
<polygon fill="#000000" stroke="#000000" points="373.3626,-208.9909 376.8626,-218.991 380.3626,-208.991 373.3626,-208.9909"/>
</g>
<!-- IxMenuItem  -->
<g id="node9" class="node">
<title>IxMenuItem </title>
<polygon fill="#fb8072" stroke="#000000" points="663.9775,-323 574.0225,-323 574.0225,-287 663.9775,-287 663.9775,-323"/>
<text text-anchor="middle" x="619" y="-300.8" font-family="Times,serif" font-size="14.00" fill="#000000">IxMenuItem </text>
</g>
<!-- IxMenuModule&#45;&gt;IxMenuItem  -->
<g id="edge8" class="edge">
<title>IxMenuModule&#45;&gt;IxMenuItem </title>
<path fill="none" stroke="#000000" stroke-dasharray="5,2" d="M468.0139,-231C528.16,-231 619,-231 619,-231 619,-231 619,-276.7079 619,-276.7079"/>
<polygon fill="#000000" stroke="#000000" points="615.5001,-276.7078 619,-286.7079 622.5001,-276.7079 615.5001,-276.7078"/>
</g>
<!-- _IxMenu  -->
<g id="node10" class="node">
<title>_IxMenu </title>
<polygon fill="#fb8072" stroke="#000000" points="556.32,-323 485.68,-323 485.68,-287 556.32,-287 556.32,-323"/>
<text text-anchor="middle" x="521" y="-300.8" font-family="Times,serif" font-size="14.00" fill="#000000">_IxMenu </text>
</g>
<!-- IxMenuModule&#45;&gt;_IxMenu  -->
<g id="edge9" class="edge">
<title>IxMenuModule&#45;&gt;_IxMenu </title>
<path fill="none" stroke="#000000" stroke-dasharray="5,2" d="M468.049,-243C480.2592,-243 489.7891,-243 489.7891,-243 489.7891,-243 489.7891,-276.7333 489.7891,-276.7333"/>
<polygon fill="#000000" stroke="#000000" points="486.2892,-276.7333 489.7891,-286.7333 493.2892,-276.7333 486.2892,-276.7333"/>
</g>
<!-- _IxMenuDirectivesModule  -->
<g id="node11" class="node">
<title>_IxMenuDirectivesModule </title>
<polygon fill="#fb8072" stroke="#000000" points="467.897,-323 296.103,-323 296.103,-287 467.897,-287 467.897,-323"/>
<text text-anchor="middle" x="382" y="-300.8" font-family="Times,serif" font-size="14.00" fill="#000000">_IxMenuDirectivesModule </text>
</g>
<!-- IxMenuModule&#45;&gt;_IxMenuDirectivesModule  -->
<g id="edge10" class="edge">
<title>IxMenuModule&#45;&gt;_IxMenuDirectivesModule </title>
<path fill="none" stroke="#000000" stroke-dasharray="5,2" d="M416,-255.2228C416,-255.2228 416,-276.7269 416,-276.7269"/>
<polygon fill="#000000" stroke="#000000" points="412.5001,-276.7269 416,-286.7269 419.5001,-276.727 412.5001,-276.7269"/>
</g>
</g>
</svg>
